<mxfile host="65bd71144e">
    <diagram id="SLsD0RqsnvwUaiKdZAp8" name="Page-1">
        <mxGraphModel dx="1955" dy="504" grid="1" gridSize="10" guides="1" tooltips="1" connect="1" arrows="1" fold="1" page="1" pageScale="1" pageWidth="850" pageHeight="1100" math="0" shadow="0">
            <root>
                <mxCell id="0"/>
                <mxCell id="1" parent="0"/>
                <mxCell id="2" value="" style="shape=image;verticalLabelPosition=bottom;labelBackgroundColor=default;verticalAlign=top;aspect=fixed;imageAspect=0;image=data:image/png,iVBORw0KGgoAAAANSUhEUgAAAOkAAACWCAYAAAA7Q6/3AAAgAElEQVR4nMydd7xdVZX4v3vvU+59Je+lvBAIIZDQiyAgCNJbQAQEFWUc5ycqgwoqyiA6Opaf8xtndH46giD8RIexjAUHBBtFehdQIPQSQgrpL3nlvnvvOWfv9ftjn3PLK3lJCMjK5+Tde+45u6y91l5lr722Wr16rcRxTBRFiHOgBOccWwYqv5qgld6M9wWU+L85ONf8rPJ/bTW2lS84cUjL+1q3P99a3tjfFVvc9UZ5RT2b957kzSjaLqN/z3uucCiEdjy34r2Jv/aetxW2RTAe/scWLYiSLa3Cl77ZLzf77/GoGB8nghLIspTOzk5qteoWtnIjLVEbx8/GoKBFpTQiTQIKlFJcffXVhGGIUgqVY0kkJxZpYkxExjSi9fe8mbSSh4hgjBnnuYmgnUnbS/ZlqwmKkqLtr4pENg/JSimyNCOMQkSkBbmbXo5SisxaAmPyCXIsTpusW1yqwdgFPlqwXpDsmLo2jhk16u84T8jEjFowaKOlm0mvSjaONaVUGx0VtOjp0vjfAaU1G2PS9ntbFyaj89Y2t94799xzJ3wnKJVKaKU5631n4aQgkFZJ5EVDq3QtKmhl2OI5UG19z6zFZhm/+p9f8Xd/97822oG8dDbOpJ5QJnxbvRom9bVMxmAKcMUk5vyEpo0mTRLCKMil+2iCH4dhWifAXMIrrRDXzmTSJiU8flpLa62p+UarNG2XztLEZKMkNaakCfouE8tSz5jyqsh/MuwnSUIYBrlA0TkOc5rLmbS9Rx4rDYyJoGSsxkbLO209Kh5pE06TvTcxjBZySikqlQoAWZYRBMGYd4IszTCBQWlFb1cPo7XTVrGrJlBdx5MebWqlCB3lMt3dnZN2ooGTyR7YGLS8PFF5k9azifXbzGJCg1hYXVnF9OnT2uapjdab05fNwBhoTJHi2aeVhYTRRJJLhkZpBTsWBDkRoxaSULeUNX5bx/Z9MmW3nVG3BDbKpAJr16yle2o3ShdqISh0PnHizR2lGpOoliZelPa8qZVqYdKWEWmR5MVdnQ+SK1qmComc41Pl2l3OGyJus1RepRSDg4MA4zIoQACe0MSNj9ZWxpyocqXMmHt6FD+naQK0SA9RjQnBFbMhoFX+Xal81suJVjXR59Wb/OWm+Ghi2BVVeIJtbbdIQcL+feV8naIKCTUxmRSM1WYNapPjALLMNidf5YlG0a7Gubw9DbVLfP0ozzYZ/j2jVGPyc7mU0No/L3kFSmmUAuesZz2lciItivYMKdJkWFA4UZ5QacwTjc+jP7X1X0nOFJND67BsKoxXbpP+fMX1eg2tlNc4Cp06f1Eb0Pm4uoZx1F56s7+qZUIjZ3MaOnqT3PwYNH0rRc+KCdDXIlIIc81m8CjgJWiapoRhOO7vGsAEhjAKcSKj7CpytUK16dKt16ZCmmV+liFDYT2KRHCSopWiVq/78oE0TVtaqLx66yBNEtAKiyO1Lh8kyFKH01BLadPYlIC1KeC8J8e53K5xCMXM67FQzIA6n4WtCM6/SasRIApcy4VuluFE8gmmYLT8t6JnkuGsbRZYNNWAtS1d1i0/Oz9RWScN5s8yh4jCiWdqqwTBIWJRuoUBRXBoRGkCHeQMqwmNweVEpZVGKd34q5TCi5zxL6W1b+AEl9K6rczNudrbodsZNL9MoNu0PaX9ZO+wiDgGh4Y9vVlHZjOQhGplAIDMeTwnKaRphiDUXUalXiNJ6jnRQL1abUz05PhIE0+TI9UqhbzPcsHTeEw1ZMsYPpmIVwqfzURSFCCwzlOHc87PUCqnhJZCNgajf9/YLKKUapmEFEocSmU4l9FRKnvEKIijCIuXJp5LHBhNEAZkNsM6SxwG2MzLChNrMkBFvp6knmB0gIk0YRDntXuEWpshKsSoptTKUkGT4pwgpoTSiiB/Q+X2oRTthzESolC1UC0SX4Et8OEAW8tpIMCJNGw70eTKZ4Z4xYbEQVn7mlQ+eK11BoFB67xYQFRAQIZGsCgMAU5pnAiRUth80jU6xOCJtRgoaWgS+XhuRAa2W8gTQbt1u7WhaSb4dnqmELQSUIau7i4ygchorHNARrmzjHUOozWphSiETAI0XvJ1xCV0MUuKI4rCFtXHgg4wWpEmKVHkiSzN6gSBwY/CWE1ya0Iwnrdpy6FQJsYj48LAD2gfQvHqXj2FIAQHVkAMjNSFjsBBpCCzqMAQkM/mOHSgqVuI8KiqCyjniOIImzN83QK2ThzYfF0kxilNmjNCVSCKchzUE6yJUBiqeEkcIOhcHW9OQGNJUOViNs0cYaRH2Z4OjAOxBEEJUFRqQhT4MgNAqQRXr5MEnWgDSVojNoC1OCtk2hCFYcMNYlFkuaqcWIioo5QDVfKTD2BRpAihspBZz4k6QCmT21ijVN2W/o2reuZjqCZg4jY1ZgthfDqcmPHFCuBAO1xW85OsgnpmiQPwalKG0REO0MabNFULYQAlFYAk3imQ1sD4yc2ogDQVQg1ZtUIQldBGg9HYLCUMjNe4nM2Fj85NRiEI9CgT7dXB5ixibiKMh+SJBtWBUix+5ilmzdqWICgTRR0EgaJrylTuvvt2li5azOzeGZSiiFIU85FzzuXEBQsItSEOFJ1dUzGmm1JnN5/61HkEkpBVh3j7209m1z33Z/1wAkHM8089w/bbzKKrq4vYGDqjbq76z1+gwlwa1VOuvvq/iIKQMAjoMIrPfPoToDSiTZuRrca5CghM8znJ6UcFmiXPPMXOc7bHBBpd6qJ7yhSu+H8/yDHjSIcHOP20d3DMUccyOOhV/0XPP8/8OdszvXcK8+fN4Q8330hXdy9RGFMKDVN7pnDr3X8mMvD0U08yf6e5xFFEZAxdHdO59aY7yMRhczv06h/+F2EQ0dlRJjaKCz75Sa+mazaDrzY2mb/6ib7VvGq/NKh88mg4a/wkp4yBrMbSJYs59G1HMjTiMMaQ1Gu89MzjzO6bQVyaQs/U2dx15+1Mmzmd0854V97aDJfW+OynL+Tggw/hsUcfYdvZ26LCLrqn9rH7HnvR29tLOQqJw4A4CIijiPec8S5mzeyj1NFBVC4Rl0qUOzq48647AfKVkq0DY5h0YiRt2jUh8vO/ogRRzntsVAbZMCmOnfbcl5UbqlSzEawI1cFVHP62Azluwalcc91N1FLLQP8GJINbbryFNBnguSce460HHsrK/iGGK0P88JJvo02dFS8upDq0hp5pvTz46NNkGoKO6ey974GsXbsWEcuihffwTxd9jCt/+BNGgCuv/hWXfu+/GBiskCZVqkOvcOMN1/CJC79IFcgUODXayzqqg8rPrIVzReGFqFRrkFn22Wtv1vRvoFId5vE/P8K1v/hvhiuDZDbhlZWrSJKEyAgLH30EY2Lm7bIHt996O4ccdCDPPPln5u00mz323oc169Zj6yP85f67OOeDH2DJklUYHbLTTvNYs3oZYussvP8OLvrER3np5SXUCfnW5Vdx2VX/xfqhGtXKCK66nj/+4Xo+eeFXqGRe8uqWa7yJqBnMMNn12kGrv7rhNEqrEAg2raGCMvVMYxTEccxOu+3MXXfezgEHHsLSpcvZYdvtmT93BwYGB7nz3vtwdpilS17k5lvvIuzoZYf5O3L7PXdw4KGH89LyNTz93LMM1xOeeOJxDj7oANauXUuWZXz9a19jz112o3/dOirVKoOVCiO1KkccecSkU9Xm+nReA0k6ATTak3vDiptGUDhMGFNLvF1gc2+l0ZrOri522WUXAOLOMj/44ZVkaQauTpbVyB3UGEBhoVbhnttv4cC37MuBBx/AL6+9jhTIMkVSz/I2pOw4bzseuv82fvaTn7B6TZ1v/scVfP2bl1IqldFYSrHixj/8hocfeZTBYa96b4rlYbSmCGISJ7gsQZVLpEmd6sgIoNAKFr34AtOnT6W7qwQabr71LvZ781vYa7dd+P0N15OkUK253ENr0ZKgSTCFI01r5u0wlyldnYRBQBzG4HydaVZn3tzt6ekqUQo1SZZw+VX/yde/dQlRR+SdcSHccP21PPzIo2wYbDJmMVTjX83lnY1frxG06+QtYIEUhUUwDZ+PV2Us3qceIIBNHVO7u3nHguP45c9+ijYl/u8ll3HsCQvAaIQMUQ6LNwl8WYX6L6Q2A23oDEsYJ9jcyakD452JufNwouXKLYHXj0mh6R6V3C0qAmmdCMeTjz3KnFnbEJgyUVRmjzcdTKUKRx1xELvOn8W7TjsNFCQKdBxAVCYohdjGShb+/8Rx0823ceb73suJJ5/IvQ/cS38/aOfAOpxSOCxIyjYzpzK8ahmLFi5k1qy5HHDwoVgBpwRMxJy5cxkaGKRWsXTGirrdiApT9K3V6a8UURwClrgj4tkXnmF6Tw+lqJOzPvB3nPPRj+KyGjatc/1vb+Wkd5zJe05/J3feegvVuhCUIxwGEEKVEbg6xtUxWKhZHnzoLwSlMuXODowSjAJlQmqZcPt9DxBGITM6DK+8+BTbzZ7NznvuQ5I7XQRhzo47klRrpCMpSdLiid4q/onXAiaS1p4ZPZM2n/RqTOYdY5jcyaRQmeVjf/teHr77Ln5/5wPc9ZdnOfNvzgRX8Va8s6icrmRU3ToKQSzKOlYsXsr0qX2USyXKUcgee+1FrZ5QqOJZlrE1oMGkW8dxBOPPdAptjPcbQXu4mAlRKA548/6sWbuWpF5FsoS//PnPlEplvnXpf7B+w1o+fv7HiOJOTnnnWdQFwK8ttS7nA6xasYrV6zewz777ceRhb6M60M+zTzxGlqbEpXK+1KMgNIShIY4CtIIsTWnFqbg0jyay+TJO7m2epO/5sqn32Ba6o63jFMzfeWf6169lZGSI++69i2/86z9jk2GWL3mJ9QNDHHDQWznskEMZHhzkz489Qd2CU7qxlgfwzDPPMX3GTLo6OvnUJy/g9zfeRE9PmSwTnlj4NLNmbUdv7zS+/JX/zR//eCtTe6YQKKFerTbs5VQsysSkWUqS1gGhHOXrtdLOCqPZYuPhDK+hqtumiY2uttVfIC3r0vkCmhK09kwXhjFpktI3bSqHv+1QTj76eN7/gbMpl2LvyGvIz3Z+0HkUmQ4MojRGG3acuyMjw4NUhodJ05Tnn3qSrs6OBr6MmVj32hynkm6LIdSvFsmt3r3i8p1rrEuqYqXF5r8HOFMisQ5dLBUJGHGUY41LBaIyx554POv6V7H8leWsWL7CS8W0CDaHrO69t7+59TZuvv9xpnT1MTXuYPWzT3Hjtb/AhAFVawmDyM9MOmTpy8uIunuYt+cerFq1lGefepRS4D3EysGaFSvomTqFsBxSrzm0eE+0Gu/STVppKH6FeqY02kSYMMYpIQo0O23fx3D/K1SH1nLzzb/hwUfuY8rUbnp6e1m2dAW//u3vcfkyC9qQpIKVkL3e/FaWreznySeeQLKEoaFhUsBEXeyz7wH0r1vPwsceY2jDIP3rB8gkYJtZ2zPcv5rnH/8zkQItDpIK/WvXMKW3m7gjoprk6/ZOJoyhVeOO71g23urQwi9FJFGTj3LkExCXOkEsoS5+z/xDSqGNaqxh6iCkJooLLvoss+fP5X3vPIVYG5RAFAYoHHFkQHKnYn719PRQrdUQYCRNvXvYBAgKcQ4lRYjMxgVewaCFH2cyAdmUpBNEHG0+jO9E0EW4TGGvFQxsOqhnjswmPmY1fy0MNU8ufIKzP3S2X5RGs3z5cro7O5naOw2sQusA6zLCCMLAkKaWa39zI1dceTnWWmyacvMfbuD+u/9ItT6MCordBSEyknHiO87gb97/AbbbppOLPv1RPnXehxga9iFaaS3j+OMWcMD+b2JKlyGO9aSTWKvFVqDCuRScI8kcqIA0TbGScu/ddxMFAYEJuP7X13PZdy+hVqtQTWrc8NvruevOW1m3toYToVbP0GE3lhIiAcaEzN1tdy757nc5/G1vZdGLy0mtkDpNmjp23WVXLvvuJRz61kN4ZVU/pY4pfPr88/j8P3yKkaFBjFJURlKOP/5E9t/vTUzp9qtfrWvBE4/k6+A02oiJK3hnURtda8+kNnMoW8clI/mMo0AFoAxGe2KPo9ALC22Yu9M8Fj//ArNn9uHSlFAHJLUERKjXKuSKhR87raknKVEYkVqLiSKcMihjMEYTaO3jDFq60MDlqzTVJw5zeI1A540VNEqFgCOMYhY+/jDb9HXhsgSjFKW4i2uvvYb+9Wvo6ChhdEBiNb+9+Q56umLA4dBE5Yg0g6AMzz2zmKHBjPf/zUdAazTCYYcfzHCln4ceupdH//IQ03p7AYg7ytx80y0ccdjbSGqWc//XmQR2A329PX7dMYTLLv8ef/vBj2BdhqBxSrc5WFqhGIfW6CSNkKYpcaARNM89/yLbzdwOpRUzp/XxpwfvZf1ghSQ1nHn6u70EwHHQIfuTVtbxx99ey5c/dyGr16xk+7l78qOf/hycRVxGmhkOP+Y4Pv8Pn+KQ/ffm37/+b1gdYsISRhuOPuFovviFi9ln3wP42S9+wdlnfxCyhG37+kArUpvyH9+5lHPO+TjgHSoq0PlK02vroX01MIbenfgwotBgU8uipx9nu76pGOXo7S1z3XU/4ZR3vpt1AzHb9m3Pb/7nx8RxCZtmZGlKKYxQQBgEjFQqLFu6nEOPOIahkS722G0X/vSnu9hl7rZU6ykDw8MEYUhkvBNq4RNPUIp8sIwKDFppbrrpJo466qgGg6vRjd8C1Kq1a/vll7/8JWe97yx6eqdsdtzhpsIVV1yRb8dpWgtagSIFcdQTRxyXAcFlzuv+FpTO8nC3GAHSnAsi4+2NhAALlIqSCy5RABYhzUPdYpL6CFHcgQMSgUD5SUOLQDYMQW5E6pAkc2htGrHEgQ5y3+H4CBJg2bLlzN5+doOQvH1k/aUgq9W9Da5DlApy+9XiOxrhNztYkizFqA6CwMcHutSSGYM2UK96vMUlSDOH0UK9Xs+DJDQm8P1CMrAOG0RkDmLyyAfro7cSB0mS0lUKcRYf+aRej0WUTYCNSJ2ly19h9uzt0I3nBMhAWS89XQAmKjxHQJrv4Cp5m9vho4hCQxGJaQA/0wMqZWSkQlie0fCheDkNtVoNCQxxEDZU0DRJcFoRBD7QJLUZcc7E0NIMWm+0w5IlS5gzZ86EdurrJkldHjeLa5oSPr7VG9dxFOTEqtA5cXobL0CpZjNNQUXiPXbgkSjQDFovuFUJCpN7lIUo7KCg1ajFiSXKocISAKI0DkUYNGWmUYKQYRpDMxaZXnmXxhONzedK5VoDBOUOipXIpkQwfoOCQBAGWNFEYeSXWXIi1JFp9LFU9l0TgTjQOBzlcpkxLh0VQOAJ0LRKR+PrNhrKpbCNmBS5GqneAIw6ATTiknNfgP8QNonKaFB+1dcvX0UItmnXaSi8e21LG2FAsVpc6uhpn+vzz3GpRCq2eUMgDCPy0HIfIGgCH6I6uvxXAa8bk04cYAwqn8abSPGRSG1LGp7em2uQOQoK/5kq/mtj1NGbf4tK83hVvNLs7Qe/0tpUV4udI/591Sh8YvJVhXdMte86KbYzTSSn8lWR5vOoIjR1/PpyAvUKPy3e33abqPXtjZlFRV1FaPUbGRReYOq2gQcIPHOOOzz5HrXWH4VxtEaFEBZvjDvabZlGcqlQUMjoCW9rwevGpIWUK7aEtezQA6X9bg1AN6JKx6GacW6NkW2q2Kc2wTym2j+alvmuyZLNXZfNFyYPZSjmlNGErtos2aLU8VgLH38LWHJHRM5dxaRSCEWXt7hZV0sphX9uEr9FE//N9161g//1gHZeaxkn0+JRyre2q9ycUaq5q01aXm4rt3Uk2jctNqfs/E6xh7JRd5Nm2ke6vb1bAq+746ggmTZJw+iQ7ZY5bLRoGAc2CQejZ9JxW9Ve0ZbY+e1sU/w/XimtAYbtn1rzHBW/tGdyog1jatQvrTB6xW9MSybC6xY6ObYKjK5Xxv3Ydq/BfOPadWocHIzWNYqyCpnYysnjjaHkjNpaauvkvvVADQ4Oy09/+lOMNvlSx8YUo82HNPXbe8IwzPfsTaQU5IhUfq+pkuKe8TZd8VSLdEDR2CHfZAnXVmYTmpu9Vf6calFqGyZgQ9ktlNy83GJr2QS4KWoqAqv992YkbOO+on0Tdusg5/tCm3dUI7MAuLyNuUqeq9RKpEEerSyd/4pTzRFV+PVnheBUs/wiHY3Xcgp3StCod1LPRxu8lgpza+z0aHZo0q1f51U01+gdVmXeDBEfS+TxAEp8OJ9VDqc8PSiBQDwWBR9QYglzOrGA9WvmNHFv87hu3ah70yAMQ4wxfOADH5hw03eQJAnWWt7//vdvUnqTzQWX71e94oorOfej59IcxDwzQoPHWuVYk4g9k7YsozeNtQa0q6UTE0nTgihIWBqf/O/5QLeorEoKi6O1rolrKDbMe6bWYJT3h43Wlic0EMf7vWXibAT5S9vj7aKvKQtar1whbCtet35RY7684WCTmzpqXinMg8KcQfJgGglyeWHJ83j4abzxfr5fVKkWZ5IdI2IK4615f+vhLyhiDG1mJ396C0DnFr6PY8xnt3wntO+Q9khTrUwJYPM0KU31pEgP0qocthPpxqGQhK12RlFGITklL2q0KiqN9zeG/nyIpOWtDFTg936iio0AGy2ktdpxvoy2lcd9YQwRjW73hMW/QZmzgE1uqhrPXGh5QWk889F4wmtXuf9gHIOyaXKMky5oE9o+HjhnGzwyEQRaaeI4btxozQRYpPAcL5Xn5kIYhmilGoEgktehinxGRea3htOjxbWimja6964VUmTz2zSeHVh8a2PUjby78VrNKDnmgICTT3k3u+y+B5f8+9c2/v64lbdOYq0+59Z3WpPBqZaGOpr2b6ECTlK/8ivMgsOgtwjPrymMcfi0325g3gcKNTDixzgPJXUuZ9SCIf1uGU9oXnJ6T73L1woDbE6qFGZGi6e3if3xfQ0TwWQMCqCdOM+ERWKnVly0bFzdGgH4fsXQIlmS59hRpEm98atSmiSpeg+ntShRJFkeRK+8BeBG2aBvOCiMZXL7ThK+f9mlzN91d776z1/bMottnFm9KCerVcHWQVJcVm+alI0HCyWtWMmbpO0ijVwwtin3X1tT81WA5OZU2x5eAZtmKLGk9QTnxAcmFWqSWBoaXSsZ2QyyDJwjdWDzdX2XprgsQ0TyWF7lFxEy6wt1/n6RjsfDVlR3m50dOwrWOkZGqpRKJURkQsN2k0EEXIIxhjRN0VFMmOeTyYB6KnSWSpDVUUGAcg4dxvjIXVocAm9YFm2BgjEyzvnYuYzk6TsmpfXRNmlDN261LItHhCA0Pmwqq6HDDkBhM/9kEJBLi4kTdkvLB6/V+DQrWdu+zJa/bzDEK2NIqjWCMEKMJssdaVEY4NKUUmAa60oJNCPGBMigprwAKgfKZygLy2D8wlwtFTpDAwnoIPA5pDE4K5SzzGecVwryHTYjqaM73Pq7PyfMzAA+SuijH/0o69at20pb2SxkIyx/4Wm23WYbAhOiTUC5s4Ob73qITPk0HzatccaCIyiHEfvtfwgr+xOSfBvZaFvrjQZNDUh8+Fla4+QFx7P/AUczMDy571zaPrU70wrfbpGM0uf2ySW2cjz72J+ZPn0WQUcPYUcXH//kBQ27u3U3krRU1PiuyMtKePrJxzn8sAVUhjfWqr8itHlshDAMqFaGOfntb2ewWiGVjOENG9h9p52Ig4AZPVN5bvEyLLBhaAO7zp+PCgJmzOhjyfKVpNaRjlTYc7fd6Qpjtpk6gxcWL8eEiqRaY8899yDUir6ZfSxZtYFapkhGRth/552YERi2mzaN5xavhFBPpqtsEWyU7UWERYsWccEFF7BhwwaSJNnY48VbTDyUDgKItHDQgQexZs06smSYRx75Ex88+xxeWTWEVmCM4trfXsuiFxfS3dNHVIoIg9eeOVttzvGu1mc2Dk1betGilxgcGmZabxeP/eXRxq9N7DTV0IYtJeQqWTP1qK+5+axDkebLUygDacK7T38n/3PddQxWBhiq+D2ORTmFseHGqbv5XYFLAZ/8bMyWNdXe9tHe49cVGhqH4/9dcQW9vT2sWvUKolIyl/KP//hF/umLX6ZeGeQrX/0C533iPAT4xy98lc9e/AUkS/jmv/4z533s4yhluOAzn+PzX/wyw9UhvvTlf+S888/DOvjsxV/gwn+4iNRV+Zf/82U+9KGz6Yzh4s9/iX/8wldYWxvmy1/+Euef/6mGqru18TEJkzqcc7z88suce+65LFy4EOdse17c9jda/o4evpw86hWGBgcYHKoRBiVcOsK8HWYxpbsbm+XPRiEEQr1e9SaCzb2i9rWPiJnEYbiJheT9FsWd9z3Mfge+hQP22ZnfXPND6mmFTBKeeuZpuqd0U4oNYWDYbfddeezxZzn8iFOpVgEyXnj6CY444mQGBoQrL72CSEV0mpAp3VO488EnGUohUyGgwQo9XVPYbbfdMX6bI9//3mWobIQfXn4pnXHZZ70oTeeWW+9h0XNPcPRhB/Khj/wvgtBQLvfy/SuvAoTPXPhJHv3Lw8zebjbnf/wTXHn5ZQQmIIo7mdIzgzvufqBtt08BfxVGVXDuxz/G008upLsrRkkVpTLuuOtBTjj5dOgIOfGUY1i7biUrVqzjzrsf5eR3vBeyGguOOoThdf2s769w5wOPcuRJ74CScOLJRzIw0E//uhH+eNv9nHLau8GNcPKCw8iG17FixSD3PvQUh51wBgQRx5+4gJHBCtXBsR71rQGTKtDlchlrM1auXMnFF1/MwoVPYO3GlmsmUeY6SkRhiMYQmJDAhNx3770oyZi1zZRRT0uemeD1na03Jkknh1z9zBNr/vxX1/Gu97yXd592Ig/ddxsb+tdRqdY49oST+M4llzA8sIanF/6Jvr4+qrWEzCmfjjT34yYWlFac+/GPk9QGqSQDXPvra/nyP38TFeZy1VkII4468khmz5rJqSGVlcIAACAASURBVCedTlh4dgPFh/7+w6wbGGQkqfLr63/H9753JUopnnv+eQ5526EM12r88pc/57JLL6E2MsQPfnAVBx30FlYsX8Z3L7+Uc887nyRNqdYr/M/11/Ov3/hGw+IePTZbZYxGz/EbG/zGcl4jfANxDsHglAZXY9a2fQwPDZAkGVmmqdUyiEO2m93H0PAA1ZEamTWgQkCYs/0sNvSvY3BwCBOWSSygFX0zeqkMrqdWrZI6gzMRaGG77bdlYMMgwwMjrwk+JmXSNE3R2hBFEbVajYsvvpgVK1Y0DpnZbEhTTBTy/DNPM2PqNErlqVx08Re5/967KDXcWN6GckrjlCNTkALOtHrP3oggVGtVvFe3zpJnn2SkWmXf/d7MgfvtzboVy3n22Rd5aclqZs/djdPPeB+BVpSMEJoAHYSIVmQ+BTpO+QRXGFj84ovMmjkdFfRwwoITeGnZcvqH/VSA9hub//k/vo2zdb7wmU9Q1mVOe8dpoAKefv5ZpmyzHaWOGZx64gm88MyLbBiss8c+B3DqGWeCht123YFpU0s4l7BhYAPOQaAUWMuLjz3C1OnTCVTEicedwJJlr7BsVf+40vSvgfPGJQAGkZxxi/W+PPJLiSKQIo+yYLUjUxarLFogdAaIMOKzMwg2z4nl33fFPqe8fFQGKgGV5lOEabRoa8KkTFoqlVBKkSQJHR0dfPWrX2XOnDl0dm5BdJICwog0c7z5zW9m5cpVPPvc8wwNDjM8uJ5yG5MGuQ3lGmlEmqF7b0wQoFzqyM3HlPvuuYP77rufmTO3YdbM7VnyygZuuOG3rF23gaGBIVyWQRQAgglinCic5HsjKWSp5YVFL3P08cdx7fU3ILKWx59+jK6uKd6EBKpJ4l25pgQKjj7+GAbWD7F0ySvce+etHH/CcVz/m19Tra/l8aeepbu7G0fAcDUljPypes7VqdWGCaIYQRMoR2Rg8VNP8Y5TTuWaa35FxSU89eKLdHZ1EZfKDZ/zGwG8S0zjJEII0VgMCeiQVStW09XdSxhFhIHQUTKQ1Hn5ldWUp0yh1FEmMH7vL6JYvmwFvdNm0NXTTZrWCAIFTrF27SDdU6ZR6ihjdIa4KjjL8qXL6ZnaQ1dP/JrgY1ImTRKfTr+np4dvf/vbHHTQQY3zRjff4+tntSCOqWUZ2gTMnTefKy+7jDftvRcvL1vh43szC86wbMkr1JIKtbrFSu6ffCO7doHMZaTVGohw3XW/5vLLL6dWqzFUWce9t/+WP9x8M7vsPB9XHeK5hX8BZ6lZGKrWyZzw0ovPMrRhLQjcfPMtpGkFa2vsMG8e++z/FsSF3HLT7SQjFWwCMX55YNGiF/jb952Bs456HZa8soau7ql0ljuYP3cOh75lX2Lgpt/fQJrUEe3zLrk0j2ZWYOKIkRSCsMTaFYtZv2Y5ptTBvN335pC3HgIZ/O63v6FWGwFe3QGTWwVa6C8MQpxonOoijjs48vCD+OON10Gtws2/v4WZs+bSN6uXQw7Zj+tv+AWYMn+89X6m9M5k+oxujj3mMG6+6QaoV/ndjX+ke9pM+mZ0c9IJR3DjDf+DpIbf/+4O4s5e+mZ1c/Bb9uDuW38LLuCOW++m3BXT3TPpSvSWwbp16+Xyy6+Q9f0D4py0wchIRQ488EB5z3veI0899ZSIiDjn2q52cPll86v4LnL55d8VcTURGZDFT/9ZjjjsGBnckIitVERE5NLLrpCu3uly442/lx1n90m3Rnq7YvndvQ/LgIisT0SyRmlvTHDiZHhkWERqsnjhvXLcIXvL4OCApNaKZINSG1olO+62i/z+1tvknjvvkA6NBCAdMbLngYfK8kEnl155teggFA3ynnefJvsdfIisGhiR8y+4UHRgJAyQ4086Sd50xKny8qBIVURSm0k9GZSTTjpadBCINp3S0bmd3HPXwyKSyHl//z4JYkTHsZz09jPkiCMWyJ8eflSOOOZY6R8akUREnn52oRx19MEyMLRaRBK58JPnS9kE8tkLL5SPfOgjEgUdArGc+p73y8FHHy/L1g3IUOIkFT8u7aP9qhE5/jXmOSe2NiJXXX6JdEdK4igUdFkuveonUhnYILvvsI0EINN6OuXZpWulIiKDgwOy+7w5EoF0d3bLS6sG8/vDsssOsyUGmdHbLU8uXiHDIjIwNCI7zp4tBmTbmdvJc0vXypAVGRreILvuuK1MUciMKT3y/Mp+6ReR2qvGx9i3JmXS97///bJ69WpxzkmSJJMw6WgMN+Hyyy8XcalINixiqyKZ9b3JUpEsFWtFRqqJ2CwVkbp48hMZdiKDTmQkFckykcy6MW3Ymtcmo3Kc532vnaRJVcRWRFytBQuJiKvmT9TFZWtFkpUiyRq547Y/yNFnnCUb8idTm0mWjYh1dakkiVgRqWbtGB0RkYqIpE4krTvJ0kSStCq1pCaZE0mzllalwyLiCad1orPOP5RlIqlzUk1GxGYjYpMRyfICrK1LUq+KpM0+1vOyqk7+6kwqNhHJaiJpRSTvT5o/67JUxFoREalkvr1JWhVbGxSRTLJqTayIDNuWMuue7jIRGU59/0aqdREn4hKRWiIykvn+ijgR6xFTF5GBTCR5VfgYv8OT7if9xje+QU9PD9ZajNmUaIqJ9VFBo3TkD97VPjZUmcCvyeFVFm3AHxHoU3xqn5IHrfxufJFi78pfG8ZpQX6Aj3WC0cbnMmr82Nx/ogi4+HMX851v/wBtodTTxT1PvcRg1dFZ1gTakGaKUAXEoSYViI1PTxTkQ5DUU+LYnw6nAgU6RBM2tsSlmSUwBslSlImo1auEcZk0E5y1lCPVyDLgDzBWRGHZb703QmJVnvo0IAjBpmCEfIubh0CN9Xy/vuOSO4VMiMtqDa+iwp9vo/JcQ5K3VQNBEDUUdROFJA5KGjLnCLTOPbx+tDoD75jTxkfFKe23sGXiD8xKrUXSjFIpAAclM37/J3RMj3tn7NOBtf5UqCRNxth75XIH5XLHpKiaDEQkP39R4QhQQUAm+WE7Aug8aNzkJ6oRIIHPFRPkHRdT+PCae/i2hCAmS106maVVBBYU85XQtJOV8kdj6DBsmUjy8iyAyZM0Cf/2zSv4t29+D086hrQoK/9rTEThMjAqf11LnrpZ6IhDf3Ka0Nyj2tioAHGc7yYKDCKWOI4QcZQC7RdRoXkAjDT7UCxkKO0JVPDnqhDmOZNbnh2dOVEBjXDvLeRWNZrrx4FiT4bvoAYnaB37E77zzDt61DqIzicUK+STpwHlfKI5wCiNOB9mmMd++Lh6DdqoBq6UgyCP3Q1UgIo8g4Z5uwqPd3GuXrMZ47PkxOv+zR+CMPAzR0dHB2vWrM2jil6tS6BZQb1eJ45j6rWEtgwMLdErreGqQrsX1/sG8qeU/1FB+6b4zWnZq/Q8NXMs5X/zfDtSbKAQT+gohbX+hhYw+b5UJ+DQtB1jkBOcopk8HNFYVWwBbw51luOhNXtD0RjV8n/L1giKzXhKVEF/zX28tolvyesfvaxiaY5R8bc4xbz1XnOy2iRUjoGCwTfmjwwCn8EzCGjmkmlphx5Hmvm1gqJfPou5p7MiAQCNJOetUIx1a1qjiTatFOVI0f7GRvqJ+9IWCNKY/Ma+ECitiKIIEaGvb4Y/Un6LmXT8adAYjQkihgZrFNnzCqd5a11j1txUc9pulJwf6uuZdfOpwU3ikZZJfleqVX74FhvtE2d3d2mGKs6fJN7SNC15BgQKJmjdaD5hS2jnvmbq7YnVJ+WTuqEa9Rdrgs33XfFkC/aKze/5c21LXWrMJ9U6M7Tcd3mqQZExI7lJUEygbcm+RkFnh6FSSRqn0o+e4P0Ep3yEWt4EKTQR5Q8bbs0vVQiJtokrv9tKnwUVjj7WpBUE5Y/JxGd+aOIyV8uBZk58/z0wms5y5E9AmKDPgTjBZhbn/PH2/vTi1wJUfqS5bjRaVCvpFdNWETMqaOOjRpQxXu44vym3SK0yHjTUvolasdHTrkYT12hCU+3TKmBtijIasV7qJZnDifNnj4iglWrszFBK+UNvx0irsVn+Wmocc1/U+AygJA9AEPyhVEpjpRjPlhSjuRQ0Cr+vsiDaPJzRScvZaSL56QNjp8SxRyQUmzO2VJQyIYO3SvDM+TtB0L4rq5BifrIqluwUNj8exOswDsT5CaU1W7+Q72rJ8zMov3WyOCRYBIw2+enhE+2x9htEmpOAtOzmbd123jRsrJMJpXMBgRNHZjN/OJGTrZAstL3hDRVIfMhWqVSiVqsTxTGO/EQY4xm2Wq0j1tFZLqFdhhWF1QGZBWxKKQxxTpqqxDhSTyndMtjjtG4CAm/8ridiF1ruN58JohDrLFo3+5LVE2IdNZ42YUA1SSjFJWw9ncA9MFqytj/VZuG0ZMQrQGufrkWcz3RhEJw4TBRQSwrp5HB5FkWNYK2ld0pAtZJ5GhA/B3k7LVebnaOrKyZJ/FimmaVSGSEMQ8rlEmnSenKYyqN9Xg1M9L7vq1PgVJMRqtUR4jjGiVDuiEjqnp5DpUnrde9TMQqba2BaIMssKY5yZ6f3x1RrBEozPDREx5Qub5cq5U+UzxwjNb/nuaPcSebEO+SAaq1GqVRq77+SNgpxRZcagqU9pZwgpNb7XibqfZt3V+nxyWfrgGfSWnWIUqkMyqJNiLNCPcnABJTKMWk9xTm/m9GY/MQzAaP9fj6lmmeybEzd3dJsApu7RN+w4fLqbGbRha2T5xKuJXW/a6Uw5ISmVMuVrYZq5huff2lPEdli9dA6G0MhEB3aeQY1ykvSJMOPssNrIaqwn33NgwNVAq0wKk9Pg2cCrT0hWmupjWTU6wlRqUQQGuJymTAIsM4n6aK1fdI6hTH+l1Hz4OQj1ZyUZNR9k5/W5zLL4NAIEoREccjI4DAd5TKZy/yZQblW47XFgDRLyGyK0oZ6WsfogM7ODjJnURqcdYRBSOYccRyTpZmnYMkVVgGUwY2alKRI3l1MuoWd2cgj3YotnxOr1ZfZyuAFbP0dqhsBhaMUQVIbwNkR0nQkz2DhDXmfpcIfmmttjSytgYYgAh1oP7N5n+ZrdknjHxNc7clRyNtdDEqaJIRKYwSSag2XWUxO8JWRSs7QhV3tsSK5DelPQW+2oPFdNWtu0nfxTtP+VAq6ugOCQMDVWL70JU48+VRWr6vkzgyLWB+MrnPVzyhBuQxXH8GlNZzNcNarYdbR8AEY5WMzRyo1AhNQTx1JJkgez9rwMwj5QbouJ0BHkf1DxPkwT8m34NH+zMaOsG9Xggvr02ICRZYlhKEmigKUFpIsIYwDRCwOSz2t48T3yeXn43aWS9g0wbmUckeMSEYYGLTRJGmKE6EyUsE5h80scRhTr9YxYYTSBifQPaXUMirt1/j3aYzz5gjD15xJm9lOBKWFUmxYsuQldpy3M9P7tmHa9B522mkO9933INVaYVAL7zvzDGZM7+Hww4+lf31KYb43swW+RpdqvWi7Wr2gBbMVAqJ4rKPcQRzHPP/ss+y15x70Te9h5rRp7LD99vzyZ/+NxqLFUiQHH+v6KBiyWGzxxKjzq8hw1Aj8Fo0SnTOBJUstztYIDGRZSmLBRGWMAaNcvnQkiAoQHRDGHQiKv/nA39I3cyYzpvcxY/oMZk6dzjZTp3H22WdzwnHHMVIZZPFLz/Oud7+L/sEhLBqnFDiHFtfYnecPM3ZonV8qPy5S5+pjcUakIteKtP+rdIvDaPS45CREYT75jBcoy/BwhQMOOIC+GT3sOHc2S5cuResQxLD/m9/MrN4Su86bw+q1qxCtGa5U2WufventjPzzy18hc4pKtc4+b9qb6VM62X23+axYswarQ+qJZf/9D2Bq7xR23WU+/esHfN51YxiqZH6SbJm4G3Q/HvFMoDPoSbhwwswMW37RdhVNL4zskcowgmaXPQ/i+cUrWbd2JXfe/gfOPfdj9PdX8BjQXHvtL3noofsJo06cC/0aVoEQ9dpdk0KDeVu9d007MckyKiMV4ihg53k78fKylaxcs5b77ryLG351DcPrVxHpzDOM0aSpRfvMn6S1Kmm9jk1TIqM8seenkourEWiHEUcYaqqZJREfkKDF5JOGxaVVOsshloxEhHpmEKdxWUqWDBMYh3UOiSA1mkoKqYr58S+uY+W6AR586GEOPuQQnn15McvWreVHP/4xt912M729EbO3n8a1N1xLZ283aR7Pr0lxyZDXtwUkq1IKLS6rgiQol4JNsVlKXIJaPUEVu5nUKJV4DJ6l4cwq1gP8o5ZyrMCl/N3fnc1FF13MqlVL+OEPL+ess/6WoaGUCz/9eT534WcZWLOCL33ufD51wflYpfjil77CZy/6LP2Da/jq//4i519wEYnEfOFLX+OCCy5gZHA1X/jsBZz3mc8QdHfwxS//Hz570cVsGFjF5z7/GT7y9+czPJIHSwRBw9QZIyFVofqOYk7ROY0374nAxg6Rfx0kafNABJ/3SRDrqCcW5/xRCnO2357u3qnUM5vLCZVvMyrUqXYZ89cEYbRl1D6HOnHEcURSG8aQeTUOxfIVq+jo7Karu5vvXXE503p7mN7Tw9y5O3HXnfexZNGLvPv00zj//PPZfffduPvO21hw3NGcc87fM3/nXVi29CV+dPVVTJ06hamdU5g3d0fuuPPuZhtUhkjGk888x+w5O9EzdRvecsB+JIl3VF39w6vYbpsZ9E2bwnazt+XWux9nKIFUwOkAq4KGfdmaNPzlxYs5/rhjuP7X1zBrxkwOPeRg/vLoUxy34CyWLKthyHjpuSc59R3vIEkyaknKHnvuzbYzprPNjOn8+D+v4orvXsLs6dOYGvcwb+f53H3vg4iCMBqNvfGxTcMAKZhaqCVVqtUKq15ZznFHH4VW8La3HUpqLev6N/DAA49w9FHHEgZw7NGHU60Ms2zJMh59dCHHHX88ziYcc/QRjAwPsWrlGv786JMcv+BklIJjjz2S/vX9LFm6lvvve4SjjjoOm1ZZsOBYavWUekaDOV1bC1sNoo1Bu5RVauPJDF5XmxSEcinGKKEjUqgsISTkvnsfgiCgY2pPS7I77wlrZGFXLbffwBAYg9iMkIzlL7/ITnO2Y7tp03n36e/lnE/8A6o0hQ+fex7rBwbZMDTIT//7Z3zrW99C0irPPvU4xxx3PE898xxztutj0XNPc9TRJ/DcC0uYv9NOnP3BD9C/foDla/r5+c+u4fvfu4JqmuJMitZ1arURTjvzg1z0xa+zdvVy/vzQg/R0+pPNz/3wR1i/Zg3LFz/Pz3/6I751yWUQFVFEhTHh11UVTYeHEiHSmmOOOIIH7r+DjigskrZQjiOMS+ntLGOzjFriOP3MD/LJC/+JJSvWsWblGj724Q9z4SfPZ8nKFbwysIEf/+Qn/Pv//Xdq9ZRNTfUsijzLfKE1alweZulqQyx98TlcBlrHbD93Ns++8DRKaYyJSVDssNM8htb2U8ZQrdS8OuwUs7fpY6h/BbY+RK2eIUEHg/WM7XbYgfrQBmoDGxCrCYMOFI4d5sxiYKCf4UqN1I5WbzcRNtMehdfhLBjVZmdAUq+hjeLRRx9lt113Q2fD7Lb3Plxzwy2UOskdD81T1QpJ6iN18rWszevj6wpRHOF8OgXmzd+ZPz50HeXePhYtWsp5532MN+31n6xft4YFx7+doXX9QMiue+1FZWiQvffaiwUnnkSpHGMU7LvvPpz6znfiBAIT8PwzT3HUgtNZv3YAVMy8vXZnpD5CqaOEyjLWrlnNttvuwLvOeC+BHsQoSxQ6xCa8uGgpC445lA0bVpMCcw5+FwMVaK4geJVdU2yKzsfBObKkTkcpJo5CQhOQ1RNKxhAiSJZQqw6DVjy/6CVqqXDq6WcSxwFkVSRJeWHRSxx36hmsW7UW4pjZO+9CrVbFKIjDcDPm3dyrrwLCKCBUAdf86pecfNKJrFm7mkQENW0W3/z3eXSWo8aRj0liEVEkSUaaZjjnCHREhsZmGUlSz+ME/BrxSK2KcgqTZwZM0yz3jgu1Wo0kTRApoYvTOjebHjfvhddNkkqejV4bRZY53nTAQTz57As8/MCDVDb0U6sONQzowtFggoDARNjM38uytC0X8BsNBKjU6owkGamOGc4UOiwRhYa5204jG1rDk4/+iZNPPokf/fxXLN9Q4Z4H7mfm1C5q9YRa5gMOtPZbamvVlCyrEwSwcOFCjjt+AVdf/SOWr1nHfX/6E9OnTqNWr2NFqFVrSJoR4QglI1AWa6s4N8Lzi57jyONO5b9+ej1r167nrvseJgyCFhWreexGGAYex87lYcYWrRRJvUZHuZx7ehXapkS5vRxEgXflOCGKSzjrfNC5wMsvL+G0U07jqu//gMWrV3PXgw8yfWovcRgSFQzaRrNuQqpXxRKPhNSrDmVKzNl5F55+4XkG1q/hTw8+wN577UNnRye1aj/KVYhEsfqVNcRdU6FUpnNKl092J4qlS1fQNXUmXVP7iAKFtjXKkWbNqtWEUTed3dOwyoK2KKd5Zekq+vr6mD7dp/nRxYmKbUbY5kvKyeA1Z9L2qAyNFU1Q6iC1EEYldt51Ny75znc4/qjD6V+1BlyC1oowiFm2bCW1Wo0iwX4UhY3jAF+La2vg12h/IoAAURijlCJNMx556CGUWKb3dLP7LvPZffc9QMHtt9/KunVrKXV2E5c6qVVHqFVr1JOMMIrzteURjAnZfY+92GOP3RFx3HPP3QwODlIud5KmQmdHD9tuM4v+Vct5+slHMXGJW++8h6HBAeLIsNdee7DPm/bBAvfedz/V4UHSWsMqopBSSZLgnKVULuX2n0YbTRCGDFdGsGIwJmTZ4ufYsG4FogJuvu0u+gcHmDd/LqVQc8O115AmFqUVSWqZM3dHDjzwQOIo5Pe//Q216gjOpojL0OIay0GN4zAlzxCfj4vOr9bshUp8GhPrLJmzJKnjc5/7Avvtsy+zZkzjqMMO5ne/uQ7BcPvdD9DZ28vsHWbw1oP3487bbgEVcdsdDzBj1g5M7ZvB2w49mDtuvZm0nnHHbXczs28mfTN6OOKwA7jj9puIS93cdtt9TO2dRin2y4k2Lbz0TW9Jm1YwHk1JO74Z/c448Jqru83wqVx11SWGKgnifORHQsCRxx7LP130aQ7dd3d+dPUPufgzn2bV0mXoUg/fv+ZGOjv9ljWbij+Q+TWCYnEHabGBN/N9nCNNqpBUWfzC08zbYTY4Tef0mdxx603svMNUdp03lz12mgMq5pRTT6GzdwaZGDIHU7o6fZJqE2CVzvfICLvvsSe77robu+48H4ISRxx1HKWODsRqyAyiFFFU4pLvfJ0T334MEiiOOu5EOspT2H3eXHab38f8eX1Y5zhqwSn0dER0GMlPbVMtslQRxmXCuOTDA5VCm4AkzRAVYOJe5sydx6c/+WEO3H9PjFIcf9Lb6erpplxSfP0rn+edp7ydz//DeeAyvnvJpbzpgAOYP38eSZLw1qOOJDSKQENHKSCrZ5tIrjm1i8aofGlKhNv/eCPvPfO9aN3BOR89n6/+678RiPAvX/0nDj34ID712c/SOXNbbr7rXmya8C9fvZhDDjyQj59/Pl0ztuWme/+EtfC1r32Zww56Mx8//xy6p87g9nseIFRV/vWrF3LIWw7mU+d9nGkz5nDLXQ9SDr2/OanXUCpoThzQOKFuEippW0WdlK7WrVsvv/jFLzjrfWfR0ztlq6cnKZj0e9+7krPe9z6CwOAIqdQDskyIQ0ccAMqRpAkm0Ng0o7vUTTUV6mGAaND5fkavEo9VeVtXG19Ve1v/qvF+a69Ja4W1GaEydHdr+tdXCbUQ2TyOrqOHau5kyOoJgR3E2hQd9SIqIjCGWq1OGPrAbBGHUkJHKWRoeBhtIhRQDjVinY/FNREmhJEaZFboLCsky5B0hEBZH0Ifd1BLhVJcQjKHthWCQJFYhYk72VDx3lVti0N2LcpZjDicgiQIUVrRAbikQhg6brntLi743L/xuz/cyHbTS4RaqNWFWiZIqCmXIkw9Ja1XCUtRbtNCGMVUk6QReCEiXiWOY5Rrx2qxpiijRFIeCkBXd8hIJSVLM8JAkSbDxHGZWhKgdAwGAmWJsiogVHVEFoQ4rdAuo5SNoEWTSJkRq0m1JtAwNXZIUqOeWuKOMhnelo8kA6dxupsMRSowPFKnXFbEceCPs2gwXsGk464ptXxqeoEVlu7uUpuHd/Tbwf+n7r3j/qqqfP/33vuc8y1PTQ8hEAIBAgNSVDpSI1VHxcLMnbn3p6OOjgI2LFxsgzpz78zc69VBQWYsd7xTdBQbKnUogiJSImUgQEgC6XmSPOVbTtl7/f7Y53zL09IjLl6HPN9Td1l77b1X+4D3z+wEbdoX5B3OfZiRIEQhRKFGS26mEU1oSoj44O8ktWg0YSa5vckz76T+utDhNLEXdwTjXjRZ0zvrMFr7yBfR3parNFngNTJZnIDyoEeR0WjTS4DgnfcEJKNS8ppKpVRuQxNsmlItlSgy0FmXeTs0GmctmYUQRWg0LvEdrk3YCr8Sa4m0RtIca0cHZM4r8mySUQ39ntH7FSgUBqVU23dI/Cwbxw0atQannHIS20fG+Jfv3sys/jLOkZsiNKXII3m6OEOJYKIStoCA1B7PR+vOMEWFCrwWvNXUueFU5cBd4/uwGKRKQhAfeSSAMRXSTBEYDdh8iWyxuRebEUFlaR4O6kACBIVRlp5QcPly1cYezjAMArI09cHtyvi4ZxROEgRvMuzr8Z5vNk1aJfMDtP3v1MzU3lspckA0x0RozA4KioBsH/cZoczenUpFHNb6uNI0S9F5RgYha2l+i31ra/+qVO46ZwmweLC18dK1m4pLzrncfXDPaGdbIbOZ7zxtfBrMQKN1G/S4WJ23WXTq9bpn1Nx9zhX2iXbneluzyxOHeaYupJP3Z9Z5m0quBe+sRUgHq+eCos1gfqjqlpQP8juDcgmjFU8//SyZ9bN0hE/JDwAAIABJREFUECoy61oRK8XSTSuV58Nvc2mHdbOrTcfPN4Xziy+2bvk9dz5XPBMGAc45ssxigqh9tROcWXnUF0MHUGFHmKFBMBPQrbzJT+XlgTbqmW61fWed2rXwW518Gatk6uQCqt2fSinC0LQCq5xMbi8NwGOHOnFs2LgR57KJd+0BiQilUgljFDNnzvQpWDr2fOML5dzkA2S/WF12YxZWyjNJ4THSU4mmuXtH7+pgyCmkxISFRBcnB91B8h2Klqkea307/3+xdOsMeO6p5iFhecxjKrRgBTufbwnKnWzEQrO7swKxaJNqRZNlGomCCdd2TNNpB9sufm0FRceTaqL46Sy9ydtnV1EWCqviVI8FPq2JH0xz584lCPa+wjfLMqIoar9bdReok/GmauxCABVSZypLzLThotM8B+2G2pWBWhS31TEd5d/VzuqKhpDJu61jsdGCrBxflsn+2hnFdffsVszqQpHTpJUeRPyqJ1Bt7UDx7FSzwVTf6/p3F1hvfNizmqT9p/7q1DfJFH+PPzeZ55vqvGEnqLOdpiv+PtfuOmcJgiBH+p6MZOek4LiblJ44q+yU6+0kz7Wu5e/YlUFavKvT5rizND6cLktT0iylt1rNAd/H3a+Kb/pcuanLyDJFpeS1r1EYdH19/PKyXbrJ9/Wqda19qNaG39/R8tEuZtxx798VwaTGF3JnKC/K7is4p+ufNuq7/zX5imM6YT41H+y4wFPOpDt8cp/T+KLtSiarXW+IyZ/rfseu9P9EZunUD3fKx6m/2Ww2KZcrlKKQKArzxFgF6G33q7Xygdcq8Mq4MPI7qzC3TY2fOScO1O6XTly+TWbcK+paxOAIbbTi7uE6gUd3ezBNQzslB6e6afrlLuhJ2mxir45v2863qq67meKJnaeuQar3tv1lt2jn1zy7m1RsT5OR7eDttAWN0KG2YOLA9VQuVwDIMiEIPNOn1rVSqBbpToosYhrQKiCzKTZXkMSJJTRe+4jqXjp2M1133V3X+U4WHLfwk5yBFbmZCL93UD5qqYt2tGacjva0a4Qu5czkN0xTqKm2GR1l8087ClVbEeEMRQbFyQbl7ldM7yjF5Z5StwY3jwOcoFVrh123suOJTyhZ4JP9fpFQxEdMZAmvVS2iJ5LEw0hKFrP2pdWcfNq5DNe9htrazLO/eHdBUR5P1IhF4jFeXLWK0844l0YKlZJp5ctRSlrtCeRhZD6UrI1w2i5pi50KzUgRR4bO8Wk6GEyKZGcdD0tHrTuyJk5+SH5McX1H1MXrxYzekRuxNfXl38j9mWz+b2fBBUVGgG3NVe1CZMo79Y+nFtqrWDQZiG2J5e4UfmrcsfuU88D0ybv2lLIsy22AFpJh1j7xMAfMnENkqkRBQKW3nx/f+StqeM1h0hzjsovPJlKa408+l40jtPLSvrzJd7JLE2jWcc0Gt995FzqIMFoTGsP5y87juZXPc9a5FzIyZjEmBBwqyIjrQ6QoGlYTKAiNbzMtFlEWS0qBxq2URaUJ/QOzaSRQSyEINZAhKsNKwboOJGH1U4+xcO5MrvzwNTQcgOXpp5ZzxpnLGBkVGmNxPpBt7h/tY12d5MxdOJEIeKYztEenkEme+lN3TK6THio/pri+Ey3c5nkHLoa0QXOswfkXXML2uOmF08goJxyyhFBXMKaPoDKX2+76JRKnLFmwgEoQMWPmbFa8uJEYGBkZY8lBC+kJDIMzBlmxbiM1oJk1OeLQhZS0Ys7ceTy/bisxUBsd5oiDD6CvFDBzcIA16za1BvDe5tOuZlG7qo7cCWqladTaz47xCKVQWHrUH7Bl6zBJlvHQg7/kz9/7fl5aVydOHFG5wvdu+SFrXngCUQFOT79Zf/mQl5o6jCAM+NY//iN//Cd/wtMrV2KdJc1iTjrxGEqh5rY7fk5UbWe1J675zApKY0oQZ3mXK0Fc6pO2aY2zCbgMIoNWQr0ZkznoCb1HVuEXaqXY0+apI7XiwPlzeOKJx7j3vvuALE8vosksVKqlfPbJQDkyJ6gw8IMvx0tFrI9GEsCl+cregSisGj+TjKednSqnpkLpNX598o833sCsWTPYOrSFOM6FjTZUo4iX1r5EYkfZWtvEsnNP5SNXX8NffvZzNJo1vvC5v+SKq64kAz76iU/ysU9cS80mXHfdp3jnu99JLPCRj17DJz99HXFa47rrPu3PW/jUpz/Hf7/mU4wmMX/1het415+/dy/UcHLS0+WV2fskUAlppAmJhKTOABlLD1tEf7WKUYZqKR/M+CRYQRiitWeUCYqUlxk5caQ28V4+zQa3/fxnfOvb3+aggxfiB4vlC9ddSzK2hXPOu4TtY7DiuTXMnTmbsDyPo19xMttrTRILN33lenpUxKAO6evp4da776VhNatWr+PAhQfTH/Zx6NJjGdo2RBjAiv9cy/wZczEqYOasedz/y0dJ0sKsEyEEzJo5kw9d8Q6++sXPg40JTUBqM7SG5554hvk9PQyUKsybO4s164f47TPrOOKoE3lp7QbAkjTrvOrUM1i9diM3fOUrVHSJnjCiVK5y1/1PkCOzTkJ7skmd7D0dw0EF/Nn7r+KxRx9mZl+VyAnGSxGcyhiu+Zkv1LCtGfPTu+7j/EsuAyOcd/ZJbN/yIhs2DnHHfQ+y7NI3ARkXLzuLxrYtbN24lTvu+DXnnf8GCAxnnf5KbGOYkaERbrvzIc678K2QNrnkomWMbK+xfXRvLG4n0n4O+gaCCB0EhGHkXbkyxy8feACXJVTKIamlpTJtNputDG/F8XKmIg+tCiNeWrmSRx95mCOXHun31TaFNIFIEagMJKNWb3Lu+a/lc1/4H6SuzvLlj9Df34dYeM+730XNjrHdjXHLT3/C//nyV0is5vSzz+e6L/xPRppDPL/ytwz0V4jrGW+77M08vvwJstTy4K8f5uqPfYLhsYwsA4zGiaEZJ5x95unMmzODm756fe4/GxHHCcsueh1/+8UvMZyM8NnPfJq3v/u9LD5yAectW8atP/8poPnFAw8wa85sFh08j/e87y9oSJNaWueHP/oRX/jbL+5gS7K35pnOdyjQEYjCaEWWxJRLZXx+Fkc9aXLk4UfQFyg+8ME/x6ZNRIVkYsCmHLJoAXFzlDhuYAkQUwJxzJszg2ZtlNrIGFpXsOLz3y9edCBbN69n69AQmQuxEgHC7FmDDA+PMjYa74X6TaT9PEg1iEE5zVO/fZQ5M2cRRX28/4Mf44EH72PmDO3Bg1I/kxptSNPU+/OaNljRy5UUyqeYxLvMLVmyhMHBGV7AOIHILymVURhS1qx6ngMXHcob3vzH+SIjyGNBhVWrV7Nw9mzKqpdzl13KypWreOqp5zho8VG8+fI/BZtSHxlCuTqrVz7D+nXrWbz4CHRoOOrIo3j2uZVs2z7cMfdoBEMjdnzgQx/lu9//PkkaozLHurUbmXPwEbzxv/wZNFPOO+98Hn96Bes3p7zpDZfw4x99D1B8/4c/5sMf+QACrHpuBQsG++kJq1x0yYWsfmkt9eR3sB1x7bk7c0IjczRFQanC8uefRySm3hjith/+iEcffMivZ2wGQYBSyvvpOr+a1LkLVblcIQxDjDYkSdJy8dPGEARhK2ikU4+jlCIIu5N17y3a/2wfJ5gw4qilR7F1aIgVK55lbHSM4e1DFEkCdBi1rMKVahURiL0SdJ+Y3fYeFZ6fmoMWL2bDxo08+cTjhArCMELiJrbeAGNwYolCTTkMCI0BHeGcQ7uUlSue5vxly/j3799MU0Z48unH6OnpwWY2D1DQEJbo6+ulp1ImCgxLjzyCjRvXk8VCkjVYv2EFRxw6q2OQ+l19FJVZesRSLn/Lm/nnf/q/hGFEM8lQRqOMhqiMCSIaSYx1Ka8541X0VSOeXrGSF1av48zTTuKpJx7l1FNO5t++8x1qbozHHn+MSrWM3cl0KHuzvb0SyvssiwqIraKR5gIxy7DN7ZCmvOLYE8lSMGIpBQpSy+oXN9A3MJuBgRkYMiRtgMCqNWvRYZnegT6cbRBon9Ro1aqXKPf0M2feXJLmMJoYtGH9hs0MzBjA7GW/94L22yB1OZwB5ZBGGpMQkjo4ZMnBfOsfvspJJ5zI82s2eLiGJAbrWLV6Fdu3bfcoYftGSO11KrIHoAzves97ueiCC1iz5iV/0YRc85nrWPniemJrWbjwAIbWr+bp3/4GWxvl9jvuJI3rBMqxeNFiXvmqU4ES/3HPPTTqdRYdtICRLRt58L77QDS33nYPL67dzMKDF7HmxZXcfPO/YSIfaaSAZpZrWgWc8hpiIx6W8e1vexs/+t6/s2V4mEMOP5TN61by3W9/HZzwk5/dxrHHHcsB86pUQ8s5Z57Cpz7zeQ5bcjQ9pYCyTnnFscdwwqteDSL8x93/QXNs2GfZ3K+t7YAEyFAmREwZbSpUyooH7r6P//f1b6AFXnxxPcufWs0xx72as09/Fbf+6Lu4TLj9zl8yY84iZs7o4+LzzuTe228BMdx21/0MzlvIjDn9XLDsFG7/2b+DaO6+9yFmzF3I4KxeLlp2MvfeeTMYwx133cfgzAEGZ+6j2g8NbZMvf+l6GRraNgFEeG9Rmmbyta99TTzU6pi88MzDcvqZF8vwiORot1auv+EmqQ7OkR/d8lM57JCFMrOMDFSU/Pye38iYeBDd/UNTIdjuDCRsjnJuE5GsLmKb8r+/9CVBmZYl8JJLz5LlTz4kp557nmyrpfLAvQ9ICSQEeeMfXiqvOvU02T7WkKved6X0lUoSKOSCi18rJ77mHFkzNCa33HKnhBiJQN78xkvl1aefIxu3xfL0Eytk4ez5/jvKyJEnniLrR2Jp5qjBzz31uLzmlFfJ6PatIi4WsaPywO23yJGvOEXWbreyZtVaWTBzppQV0tffL0+uG5IxEcmyEVn5zHJZdNjRsnrdkHgw5DG5+qr3SqiQKEBe/6Y3yIlnXywvjbSwhnfQprvfN65oY2c9KLWtyze+8kUpBZGgewR65cs3fltWr3hBDpoxIBokDJAv3fh/pWFFalu3yZELD5AQZNacufLIs2s8ZHWjJocfvEAMyMDAgDy+Zr1sF5Gx2ogcMn+29IdG5syaI48+96KMiEjcGJbDF86UHoPMmjlTVqzfLMMyVf33jNToaE2+/e1vc/nbLmdwRv++kQTADTfcyHve807aQHrF1FhYlsw4Hw0LmA68x/0hpafzVIG2w9dUroP5WJTCZUDhCPPyF+d8mlJHHkoltM6jFFlhMmkVweGUJsvtT6EU7eD3UVkBBJyf9wm7VduTSApI1A7FjSbfy2ms8u3un/fXrVL+e0DgMrRS2NxzKlB4e7e0P+AwLV/jAlh48rbxbbdn1NE34rW4njx+S/FLF+2ah/QVjgzt80XIdWH1LTSTKu8H/+ao8zy5qclBpHMHkdzAa/MFVDCuiF20m1UPsjTL0aKsR9zewwVwsZn2Ad5t845f7hp8ZF7hKdJJLeTM/HcRx9dN3QN5b5MfCdPl9u28NtFP1Zffta6qjrcWDgD+TFEvj5yt2xaF4pWq8G7zKHITY4J1S3hJ6z3tN+i2n0HeZr48PjMCLb/BopQFRF9RlUJIOLp9gr04MRNwWsc7P06kPe+1zvr5P8cbPKQdEaugk3s627XzvMmviWsHDYh4JaXHBssVRNJxv8q/pHTX+Qkfm4LGt8+OWqaFqhYEgYcC2IsjoOV76nzIU5bZDti+blV6O/C7fXY8I+yP/c70A3THDezvmUzS7aD04y63GW3ycrQem0RqdXnlqInlnk4DO6F+atyz+Y+pdET7csUzuYBWE+7ZnfdO5n6sOvlvvGyY5Pzu0o4mnsB2qOTWrl3bgbWyOzS5KTeKIp9JPQdYla77Owqq8qXZJG/tvG9fqvl39P5Jr6nu67tavsnun+odrjXDTrxZxgm1Hb1rZ8uyK7Qv+2dnxsOefL812+7m87tLaty/4ynQOk9V4YQDDzxwr82khcQtlu2lcoXhkVHaWekmK9b0H1d47JPdSuW3M6S8CJkO/rDAi1GSRw3lFdVa09cXMDKa7RBNfGqSvGpTLxg701pO/oY9aJ5pQIU6SjD9K2RfeK8WXxcG+kuMjSVkWUoURmTj7D7d2HO/C5qu7t485+/KNQeSMTjQM+nkVNB+jCctBqfuaMjJSjZdJXOFyz4KBvBSeHpZ3L1sLFBToIVZM259OB6+vbVE6l7t50uJQkRM2H3lz+aI1V3F616NoHY0RLrni65MQsXmdFomn15p0Q2hu7epEJ9tuEWhLe59zxUxr/n+suNZWnfu3Lcmu1/wSxklU71vuvm4e5C223t62s9B3535XSfbvbRTN0qnUqCoD35zv68kZZttp2Bz1bFYV35AtlYMHezuO7HoUCjAgMED9BZfKd4DtGI0O98jIpj8fge522FhjNTjBlSr5aZkx27BmH+po23bT03VvjueSfeP5kB1Ha3Fh2r3YWdZZMLGfZxgK85IRysqhbg8WbcqBpbK+098FFJLILW/127jyTUYquuDO9Oe+3KQSvuP9tByGFwrX3lRIclV5wrx2J1i80AoTaYiRGkC5VCtVI9TzRV7ziCTL8PHVYm21B5/RZzzCbqkKGmOwZm7rxUzrs/En4PtOpcryboyuObv8h1uKfIZKURcy6fZi5R8VlHQGSwl4PFDdcF63hQhFCah8eIuf/8eteOe6DSmpzYO6LgB2vqqam0XlOT4r0q37vf8VXBa4HPmKxCxBOJNTW1O9TJQKcHHjJquFaCRLJ/Hc0hmP5o7/MsnG4BeCkwbkz4J7RuPI+meM5XkA1QyIhIC10CJd8c2gSFJM5w2pCiPnZnF9IaWgITUGZxRKJM3kthpj7YE24NjWhyKglQLM9X/KqSxNwOUogBnU9I0zbMAWhSWMPI+pkIRoSJ+COaDFRECbdBKo9DUx8byJa5tlc2JkCQpWZaRxk0QH1qWpD4HcNxsEJiALE1AUgLtuOu2W5k3dw4PPvoosYLUiTcxSJ5sLP9XCkTuSQ+Z4nwHovfe6YFJD8b1AIA4396FL60og1OCMQnGNDGBw2ifz1ejCSTD2IRqpMBBMwEnmkBlhDQJ8AJTGYVTltTWQSUUmRjAD5pQHKF16Exwmb+ayc6MO6FT89eapad5cD+4BbYXkRpLyVhWPf8MS5Yczvx585jTV2XJksXc84sHvME8Z8g/vOQC5swc5IILL6Ee09Lt7xek7ymutQUPEzWseT2N1gRa89Tjv+UNr389cZygtQ8QWPn8Cs5fdiHDoz6mSWm/fNV5xgUFiIM0yfxKwlqPdZokWPGZYpX4HVmpVCIIQsJSiadXrODCS15Ho9nkqceXc9kfvo7NmzcThCEiGWOjw9x000388Ec/4ehjj8MCSVaY8ccvDjtIjT+mEWDTIKTvraNTe93Z/M45tm/fzpvf8hZGxsZwwA033sCMgUFm9ZSZM6OPebNn8oeXvZGRkTGOO+YV9Fb7OPzQwxgdG0OUotFocOJxr2DWYJUliw9i/YYNEETUGglHLvWI7YsXHcjGTUNoA7V6neOPO4Z5swc49uilrN80TNI1SCfjn/HXdo72Oz6pszHOZRx59PGsXruZTVs3cd/dt3HFVVcxtG0YY0KiKOInP/kJjzzyCFobGg3Jgx1UB6ryJAcd/+7OsdurvHYnaKWojY1RCgLS2IcujY7VyJI6zcYIThxhqZwLHNBi0ZK2VxY6RJwiSxKiUOjpKSFKkWTeEcQ4IInJ0gTRmkwZFh+xlB/ecgs9vVUqJiOrD0O+tM1sSrkc8c//9l1eedJpSEtxoXFSBATsn53kviCtFDfecANLj1zK+nXrSbIUVMCfveMv2Lp5G8NDmxna9CKX/Ze3sOQPjubjn/krPvCRj1Pfuo7PfOJ9XHnFu2kkCdd++vN88EMfY9vmDXz86it9MLgYPvWZv+UjH76WsZHNfOraD/L+K99HpuBjn/oUH7j6g2zdvJqPfuR9vO+qD9HME1eo1mau+9iVgdlVx73aYjsghSBiKZdLWAdJkhFFAYccchBRFNGMU0rlAJtZ6vV6K7F2AauAeMDbHQ6y3ZXWe4HSNKWnp0qjUUcrIUkSojBAK0e5ZAi04rnnnuf8ZW9g29YxDJYXnnuaSy+9hIcfeYzTzziXiy9+PXNnDfLNr9/IsmVns+DAA/h///IdtIYbrr+e+XNmMXdmP3PnzODeX9zPUytWcvHrLmPrtlGu/vBH+O3yxzjyqKO45pOf4pvf+Cbz581lzmA/CxccwBNP/CfWQRAG+GzXxX51nHzfE2G3jw5govJZK676wJXcc+89DM4YpFypoJSmUukhaVoqYcALz6/gzrtv5/I/+SMeXv4Eyy64CEXMOWe/mu1b1zO0ZTO/+vVyzjr3IoLQcO65Z9NsNNm8cRsP//q3vP7SNxLHNc4593TSpMHKleu49/4HOfOc8zGB47RTX0mtXqNeL5pu4gDtHqy7RvtVuyso4iSlVqsTGo1Px6G59xf3EwQhvb09IN7mGJgQcUKjUc+1muDw8Am7b4fc92SMwmYpIpbVq1/gyCWLQSzVoEkcOw495gS0cwSmTBiUMTKKZE2sdTgVsG7zNr759b/B1Tfwzndczne+92+M1C0fvfaLvPF1r+PKK9/Pe9/5R1R7qtxy+9188Utf4rN//WUyV8FKD3/7v67nve99B1///i1UenqYXda85+3/H6XAcNf9D3Pd57/Av33/n9ACNvW+qIVroRQ7CdU9MF5u1CmUldI04xRjDEma0mg2KZUrpCmEUYU4qXPTP3yNiy5+LYsOOYhm0sQpIZGUhQcfQFLbhksapC4gUWWsCTnksMUMb91KbfswthkjziHaMPeAeWxa9yIuSXBZCRP0Y7XhoMUHMrZtM65RR/dV93p99+sgVUApiiiXSixfvpzDDz4Y1BhLjj6K2+78NaVSRDPOCEVaLoVBGBKGhjDAIy+79l5q+i/tCe0+e1rnPPBvaDjo4IXc/8jP6O/voSyjPPfsCt595TUYFJqALHXoiqO34oGq0gwWLDqMpcccR31zhVeeeDyHL1nE5uEGs2f1EYaGJ55awSXLzmBkeAQHHHniaQxvH0YIKJcNYxKAg1IEWjseW/4Mb/3DSxnavJYMOPCYc9iyRZg7qAiKzPRq/Az6cl38dluxu8qcFzkIAhDBBIpKVGX5Y0/wg5/8jJ/cezcuSwiNQlwGub86orGZUG80CcIQYxSNep00yQiDkgeGshlBWCIIQ4Io8vOhaKqVHnyonEUr3++w9wfpfg/6Vk4ITMDSY47hqVWr+M1DDxGP1di8eQtK+0YulcoYE5DZKZJ5Trsx3cNjD6lSrhCVysRJQhDmaNriSNKYZhxjtCaJE9LE+uR7NkOcD3IwYQkVlrA6wFpI04ywFGBtg0ZtC6teeI5lF1/GTd/8Dls2rOaRB++mJ1JUItDKIQKVsETZKFQyzIurnua1F7+Bm775b2za8BIP/uoBSqUyUeRHpS/b+HoXv9XL7L+pqXOw2ixDK0FcxsjYKDd+4594/WV/xJwZc9DWtoK+S4Fhw4bNEPbTP2MB/b09kI4hSZ2tmzcQlXrQYRnRgiPFOMv6l9ZiylXK/QPMnNlPFo8Sqoyhzeup9FUYnDNjn6w+9v4gnVDK7o2iqJDMKbRShCZg6RFH86UvfpnXnvMaNq3fSJomNNOM4bGYTVuGydKULEtIM8kRzKaivby5nI6mKIQAtXoDwSOaJ1k79bQjJCr3AgqjhK1DGxmrjYCJuOOuX1BvJF4oKdfKm1trJCgdoXVIGBisTVi0eDHHvfLVhJU+7r7vARrNmCRukCU1bOpnmo2bNjMyvJ1AaY44/AiOOeY4xEQ88OBDiE1R1vtIt5NDdqpQd1GRu7+OrlJ2zqXS0SWKNMmIAk2axKzbsIEf33oXf3HlR1ESMrN3gOOOOYo777yN1Bluu+sBZs49kIULezj1pOP5xd13oNDceee9HHTgQg45eAYnnfRK7rnnbtIU7rjzXgZmzmL2nEFOPOFYbvv5z7GZ5p57f8XAjEGSLG2VY1o+7BKMO+bXfYyb3fG3+JhEMSUSMWjr0Jmj2VSccca5fOqjV3H2ycdy041f4+oPX83GtRuIqv388/d/RF9PBNrb6YoQrMm/pZgCHHLv1ar1emknHsM7ZAhQrlZIk4xq70xM0IMyIQ5DnAQ4etA65PAli3jXuy7nhBOPJjQp55x7NqWeAa9YSMbQtk5iM4JKP3EckiYlSqV+jjziSE44fimHHnoQZA3Oe+3FlHpmkqWWgapBS535By/gNedfwImvPpO3/9m7OOWEYzn8kAPBOM485xzmDFYx2QiB8rHDBUxkK7Qt/790Nuu+Jml/akff7Wx/EBpxg298/etc+/FPgDKccOTRfP7v/pZ3/vGb+fCHP8ZrL76Mnv55hEYoGccXrvs0Z5x5JldccRWVmXO5855f4lL4y09ezatPeAUf/MAV9A3O5J77H0IS4a8//1lOPumVfOCK9zFr/nx+dMfdVEvwub/8DKeecDwfu/pDRH19/PQXv6Ja8jHCHXGG05S/E2qyLW4mq7rasmWrfPe73+Xyt12+d5C+x20YClCuG2+4kbf90eUoo8gsKKoo5aH6rIuJyh63NMkcxpQxyoPe1lKHDhSaDJ0PiImQ5+3fE0IM9yL5Bu5woMsHKYDWir4+w9DWBqUwQqG8fVN5TapB42yWu/95JX1mHdVKmThOCaLQOxfkbYakKMnQKEwQUW9mlMsRgUoRl3lttw5xBC3GNkDkLEo7as6CCJVcKx6j0KWSxxAVn2IlDItUK5IPlDZI8/5WGnUN0knJX+nvD6jVLFmaEEYhWZrmcZ0OR0BMiHLCjIqi3kio6wgdQJA6SjpFk/qcxEEvoiGOBSMpA5Fg0xgxFdJMKJUi0ixrJSMzgQFjSI3ye34HWSP24NhhQDNP+B04cq+miTVpIQO2/u+dfAb6Q7z5bnKkqtnZAAAgAElEQVTW3e++u0oFWJsCMaVI40PlHGnqEHGEYUSWZT4hszZ+oy8djoRiJqlIIYPyAbTPOKzlyFjUpvUxlQP9tO1h/oiCgDRNyPLcQloE5xyiIAoCxFpfR2tx1qG18Rpil1EqhTTqdeKkSU/PAHHcRGlHEGjEpf4TWnmgWwUus4SRIUksURSQJQkiQm+1h2athtiM2FqMNlQrIWlGyx1RRLrquL9p+m+2y+ZRyAuXRsnxiwTrLGGpRLkMtTFI0gRtvOCyKZRLGm0VWZJRrlapZ5Y4dkRBiMEQx2OUogACgwm1TyervQdNFAW5R5VFrMJmFjJHT6WMcxZTUkgmWJG8bFMv6NqRU0IxSHe0UduvUTAAWZpRLkUeKZqEKAoYq8WEJsQYr2gxCkyoSNLMw7irTm/f6afK9pW9P1LHe7V2D1J/aHFkSZNSqYTWDpfGfjDiU0lqpSlFIUmWEhpFEBqyNCOzGeUwzF3+mmgtNOs1ent7qdfqiEsoRxqxjrjRRAeGqBRiRZHaDOe8B28c+9k6rjcpRRFKW+qNOkaDcymB1iglZJkjiRPCoDvzQtsQ/7uhqb/b2c6udWRZjDEBURiQZQmSlP1saRNK5WquJ0golyKGt/okb/VajahnAK0DD4vhBKe8eVAyoVrtJQw0cRwT9VRpNpve001roiAic2Bdylgt9oLXGq8ZVuCK0TmJmbBQx3UK8S4PtikqH4h4g7s2mvXrN+wB0ndeBOn+VhzHBGFInKYMDPRTZJzorEK1Z3DcW4obDJlqz5M7wzj70viyM2WYPau341c7xWHxXp3/EOWv2QzKUQASdLRNtxq/EvW1vq+JgGqrDf2cojuue+qnkguN/PtqIlBTX0+ZCSR73ob7mvp6S0AJgN5qqXVeyEGWKhFKIqzzK4WeSoQBZs8ebNWtcKC3FowKMNX+1vCxzpsK+3ojMitUyj2t/sssBOUI3Rd1zZaivC92J8gzwPBwnYGBKoGK2Lx1G1FUoq8nZPtInXK5TKB1kXJpyk1pUC6XMcbgrGPBgvnt1Ju7RG1t1Xj4RGstxhiiKJwAxzf+K90D1JNPNb3zjLOn6uod1Xx3GXh8fYv3FBDu6InXJqXOfY3qcEToeG6y5VPnAO4sh3Rc/32k8eXWkuttyJfyHfs876zRjolRHYMKOgRpx7TW6p/8TKg7uqpDP+R9qrv7QgH9fVUCpRgYnMNBBy5gdGyYWiNmsH8Se+oUzBc0Gg2vyCjW0rureSmCncc9avJapmlClvn91E6RAKqjQaevx36hVtV2ohDiPHwhkmdbKELLxjWv6qyYmlx4Tfj+uN+TDdAJLylmyHFMOX4gT5eVYudoT5/fed4r+KK1wlT5TCqFULIt4OOWuibfE2pcfq279Vyu2FNK8kz1IOIw2uCcUGhEilo6yRU+BRpkh+JUgNBoSqUytbERrLVUK2W2b9/W9Y5Wf+Uur+OTGgRRFLZud1bQe5KFu7WW6O4oay3t77iWikcx0ZNRckmH8mFbjnYLqK6P7Azt+opgp94+/qbJlgSSgfKujbSChh2dScrUuGcmLOvHT72TDbyO2XTaskr3qW4lvKB3qV2novEbmd2l6cvSHlKSD9Bc8dXB3FoVahnJ/b1VxyrPdbRze+7zA7Kd26GYJFqzr4AybYtFEdaHaucKVIWg9dgiJEmMCPT29OKch2Go1WsTa5kL8sn2skHnJnba3euu0DgIRSVeQmktgI/7dE5hjN8TOfHKolb2AQRx1s8+GKwVwrwdvHSbfDbu/up+nHM7PpwlMUFUQpHi2SjMpa3kTgoW3bGHxGY045hST7HvKTIN5Ll7ZGIyz4mfb0ezTLaA9dKZCeti/9MrivKozD1Ee59uHbAr79iJr4iPU3bOoYMA5dqJVIrlrv9l/OyofV394HO5GS+3HOh2G2scSZISlao4bCtmCPA8aQKUyhH+8gHdbNSo9PT4F+SzoctzL4VhSBzHOBFGR2v09FQIgyngGJxfAoh04wV3cPvekoLjqZ3LV+W43YqMLM1aMPPOCSkQZ47EZTSTGlo7RDJSFMpo4tQnc/bR81NFF4yfenb12HMKohJkDZAYEDIP34kAaZYg+XxatPea1au58ILXMjy6ffdavwtyrp2Auz1Htm5ksv7tYG06k3/s/rHn7n8700tKKVAKHQRe+5Yn1AO/IvRB9EJmJeczRSYZPsA+w6ef0WRifOJs68BlKK0plao5IHCOti4CNsNZIbZQSwRrUzQZJtBUcgHr8IPXZlkrgN456zX9SuGczQHIhDiOPZYqHj0QoNGoAzLBV2EvuwV26hzHM4xDiYXGNtY+/ywLDzwUE1QJjKJSMdzzwEO4QGO0QRHzpkvOoSeqcuJJZ7CtAU4K6dM5JYw/YN8Imp2kohhBwPNPP86CWb2Uyn3MmbeEF9euoxRUWv7IrT2NcwRBQJKlWJx3aHBQ7KoKzpzUvVg6/lCdbV7MGB1DVSY8NOFFasrrL1PKZzNMQGNkhIsvuIht20fRRuGyFCWO+tgYb33rWxhr1tBKs21sC4cvORSlDbMH5vLsS5tI8Tbmow9ZxIxKyIzBHlaseRGLIq7XWbLoIHpLZQYGZ7Fi1SZUpGg0RjjysIVUlGHRwgNJANM3l1K1l97e9lGt9vg9LsLc2bPp6+ujr6+P/v5++vv7UUoxZ84c4kaTSk9Pxwza7od94GA/XSc7KHlsyKOPOY6t20dJ4xrLH32Yy//4T1m5ZhMWIQoN3//R93jm6d8QlXtpZhBFHYjTu/Xt/UjOctjRh/Pgr+7nVSedwhNPrmDB/AVk4u1qtljK4pdFRhvK5bJHEXB5GhVn/SF+FWQlN6F0KEm6Ha8K4egBEgqTS7tF2oO3uNNf8wZ73TVP/Z5Qrqy84Ut/z+DAIJs2bUIZn8PJhCW+9c1vsGDeHJ5f8QyQMdYc5dpPfpaPf+JaJM3427/5a6648kpS4CMf+Rifu+4LbGs0+NznPseVV16FAq7+2LVce+1nGEtj/u5vvsAVV74fAa655tN8/OP/nYbU+cCHriQGcAaX+tkyTVOSJCFJEgLjl9POWWyWeWcdaxERoijCZhmlSmEOm9gP+zcKRgm4hMTFNLIEExqUgsULD6Kv0k857MGg0Xglk4hF55tyS44M9nIZiJORyo3ZyoLyzvLlcg9RoFm14gXOP/Ns3vn2d1AOIqrVCl/72o3U63WazSbvfc9fUC1XKIUh//StbwKWG7769/T29WFMRBgOcNvtv+SJJ57jzDPPZXikhgBPLl/OWaedxsMP/YbTTj2ZM888mSAq8eUbvsF5F1xGGPXwj//wD6AM37jxqyit0Cqk2j+bW++828/eQHe2wN8jEsd73v8+nnrqKSo9PTitKVK+/X9v/288+ejDzOmvoiQGBXff8xAXX/JmUCkXLDud+tBGhtZv5a577+dVZ5wNhFx04YUMD21i7fot3PvAY1z4urcCGa+/6CzS+hbWr9/OPfcuZ9lFlwMV/vhPL2fThhrbRtaT2ibOOS9s8z3zWK2GiGPb9u1Y59i2bRtZlpEkCXEcU280mLgqnHRPup8oKFEplxDJSNIElOHhhx9FlPJLg9aN3Xsor/zQOwj4/t0ymOQ7znyjjVhLmvrIHaMDnlvxPGeffTaZtdz8gx9w441fIwgDlv92Oeecew5pkvGzW27h//zvv2NseIj3/MW7GauNYiXhlp/dyv/50t+3v6R8UrAw9OlmwijihdWr+Ku/+kt+9vMf8OGPXcNHPvEpfnrLz7npxhtJR7fw9j97O3GaMZqkfO/mH/A3f/e/yWxLX/H7SR1KRMGnTO1AICIQhxGLh2ASAlPFZhqMYtbsfmqj24jrdZwLULoEacKC+fMYHRkhSTKSTFNrJCAZ8+fNpDaylbhew9kApSvYbJjAGN78xjcxsrVDmS4FtEpGWrhn9nhHl76+ToeXouTj9Slt2r++u6IgbpI2Grzw9BPMntGHtgnHnfgqHvj1Q5SrneqOPHMdnoMKaa92KFd+h+wmDo2fQbHOY60qIShDbIXDjjyKiy++lGYSc/DBB1OuVrAiHHfCCbzpjW/C2ZRDDj6IWTMGqJYi1jy/guNfdSrbRlJQVZb+wbHkRgWKNNrlcpkgCMlsxpIjlnDqqSfz7Mp1vPKkUzjplOPYvGoN/T29ZEnMqtWreM0Fb2TD+iEwAUv+4CisdSgr2EB7G+DLHE19AuVmC6HYAnT0v3g3TY3LM0mCFoMWnzDWaotVDqcUWkICCUB8zKlHigvQylAplyEXiv6dyuOmi8IE/ZTDjCxOqY+NwZzevFi+HNu3b2f27NlAjjDuFCZ3xRweHmZgYICuAk/Cv/ugS8Z/pLvRKA2gVMixrziO4e0jPPnEk2zevIlabRstPwcVACEiAZ0q9cJEsyPd31RqpX11tGqqlNffoEA01gmBhmYTSj1lnBJ6env8zBd6WPfMed+1ZtxEG00pMjiX8p9PP8VrznoNN//gZpKkyWOPL2dwoJdOhZwoQTSMjI0iQJambNq8GbTCOYdNIdCaZr3Bmhdf5LUXXMC//Mu/krk6jz75JP39/YjzCqoiAuf3hiYtrK9L65LK2whwRAghNksIjALn2LRlO9W+QUrVKlo7sAmEIRvWb6Cvf4AoighURlwbBmXYsGkrPQMzKVerGO3Aea3sqhfWMDhzBocsHj9Dwpw5c4iiiKhUolQuUy6XW8EM7QE6vZVhLw/Szn1N+/DGX0NhyG8SEUuJ1BmWHn4Y3/ra33PC0YvZuHYtmQWbGdD9vLB6I41mTJZ26G53wEm/C0ZrfdPhBYwEiDM4DNqm9EaQ2SYZGTZXHiRJQhCGPs8wUO2pAo5GcwxLhtOKw45cyiuOPxEdBNxx+8+p1bZTGxtm86YNbN2yGaMM//7Dmxlt1lBAFEZUe/vJnKCsRVlv99NGUW/GHLH0KI459hhiB7fd+lNqoyP5asXnjerMtPiypvEFbOW9UigVtqEntSChJqj2o8JZVEoDnHnWSfzs598DF3DX7b+kd3AOc+fP4OSTjuYX9/wMVMBPf3YHgwMzOOiAfi4892Tu+vkPIBNu/uGtmOoM5i0Y5LTTT+DO238ItsFd99xL0FOmQbd/NPhlrzHeAX/GzJmkWdby7uuuxjSKu+3bt8v1118vQ0NDYu2+gdO2NpMbvvpVyZK6iBuWZ1f8Vl59xjJZP9QUSVMRieWGm66XUl9Fbv7xT+TABQulrJBSGMmP/+M30hSRmnic8MyJWCdTopJ7LOk9+W/HWN+T41Z3FiiVNSt+IwfN65Ny2CszZx4kd9x9t5x0xslSi2uSuESWP/6YnPma0+Wx5Y/IaWecKsP1YbESy3Mrlsu5Z75Stg2tlg9c9W5RGukbHJRzzr9AXnPWuTK8dat89fov+WTtIXLx6y+S0888RR595Nfy6lcfK9tH18gTzzwqp5x5gYzWRJ596lm58JyzZHjTWrnive8SHUSio15Zdskb5JWnnSWjiUgtFYkz59s2b79db4X9eLj2YdNUbvjKVyRASRCWhcqg3Pj/viOpi+XGr/wvKZlc7uiSfOWf/lW21UfkoIPnSQAy2DdDVm0ZkaE4k+bYNjlhyUHSDzJ/cIY8/9JGqTuRsaHNcsT82dIDMmtghjyzbptscyLNZkOWHnKg9IZIX1+PPLFmowyLSDKOEwr+HxgYkHq95n+7bl7bEalt27bJP//zP3P55ZczODjQ5X2xt8hZy0033cS73vkOtMlARWTiw9K0A8liJPBB0uVyLy71UTnogIYFlefM1uI9kyaXOePtpLs7H+wGwmanw6bSuPoYOgTCMkjQel1qU0QcUVDC5XskEa8J1Fp580xSw2YZURRBUCJLrc99lL/EJk1MFJAkCWEU5Xt0jbNNfD5FixDgpIJkUCoD2NxYr0gsBKWgJfHbSiMPBuUDj1/mc2nhdqoVYh3KBNjUQ2s6rb1rnkvROsQmdUT5jCBovAMCCpdZdBCRUkBbZ365KwEYfz5UeDNYmkAQ0oxTdLVCklmq2qF1iMQ1VKlM1oFUr5l8ieqcRWszzkKxY1fUDsXRPrSTFVnp8BgciqDQraADcDrEaEW5HJElTUC1TC+BKoz7PiJhmo/Qhk3f3apMMD7u/HMFpRm62uu9YAh8JxtDHMeUSu2wKue8I7fRITZrooPAO3KHJbQOIChj0xhtglY3Ott22o+iKiA4l6J1hDhvG0QysjyYOygDkkGWeYGhIAp90YLAZydsbVA6oj1ertkC25pTl7uGKq/xzzKMCXAiBAqf6ziKaNTrfu+Pj15xOShWkiU+ZSydA0qBCcEqsD4QJLZQ0gZKFQDCyPNYNdAel8gmiAlImk3vCqpV620+bC0XfyKtjBhth9CdF4SBtYIxoc+QsJdwP2XcxlFrjQlD0AHWWoJ8cglMHkXQERljwjxlovKsGeaw6IXwnFSUtDUFHed2sy67qEDpduFSnvsFMF7+idZ+9swHaPFuY8LW7zAq05qFxYEJfMcGPg2Lr7zHZhXtA8hVoWkkAOcHty9CRBB2FEoZWo7PeTPnRSPsENGS6w7kZaxAUnjhYx2YwLtfiFIt/ikyBgVRhANK1Wrb9TR/g4gmDEotE4kutJLKz6coac0GoVcCt5SuJjA5b3t0AGX87zCIusrY+Yd1tgOVbXxtvLA2Wrdm2ckogCLmM2DDxo1Ym3bl7tlTSpKEak8PcRwjLs+Limdu5ZVsPrVlXm6HnuC7qFTbZ3/Sodd5cg+LXQQD7yzpjpm++HwxK3mtoldqaNV2gp+8aXPv4w6H+kIut0Kx8O0DfunfVUxLS3nSFmjtiI4dKYRasZcvYxNMe1PhpbzL270FP9ky1U3+cMs/WPK2KSAppXCWaTNaKz60eHfx0jzkUHJcuoJZu/MXtUkVzjgCWpt2mQt+zht8um1mUAxIrTQLFsyf8sY9Ick9L4aHhwlNgKCwkkdcuCxPzGVahmilyFf4dCRNmTp1StHQnVd3Z6wKYHd410TS2qC1odoDo6MWpVXedz73Tu56nS9/gikGaWEhLhZEvua6VS/fNjbnBiPj9j2qA0oyn3Vz9snf6yagiI9nLJt7yeyzbc9eoJ5qSLPu/Z/HO7Y4pciUyZexrgX066E1fUCfR/ezhGJzrvIQiJnOfa9ybFnfvkXSO78oFrxHmRSiYByYcHfL6Ul3mzrPbyTKvyPQmr6+yrR1Dvy6ft92ilK+skYbbJ5jwjv4KYzSHpbORDgnudsaqFzkOAG0BmfH2UjbJNAKxSo6rpiZd4X8k7umNimY2lqPuyqtNJ/+je3lY+GIoRFpxy521CD/S7XuVtBarhWxtzY/rzu2ANKS7h06la52KGJvOgZo6ytt8mFqL+OpFDAGb+YCyKEW2wKuwBUtUr/m+KNFhiwBk+8NRXwCt0x0fo9vZYdCa+/LnIc0I+JhLnUQeL5V3rdaiUO3lh6dqxXf1+P5yLNobuPOxW5H9CrWCUZPZNqgYBTXuWbbJ+TXUspo4iTFRKGPKdUlHJoky1DaEMcJlaiEwoBSFN2g8w2JuE7mnmRWVXuCX7Xrz3nh4DEtNdq7A4ojMArrrMcKDUNMGAE6z3boFRDiinnbd58fZPkMmq+8inTgWmgpS3xBi272M6fFL6GKsCyV7+kzbK4P62yr4h1tBtk1VcbvjloTm/MDSxlvFVA6j0PWlkBrIpfzWbmC0z6bn0jm9SA2A6WxChKs1wu0MmjofLvnW6TgJqc0onNBICYHF1Y+QyBQTHZeNqiWcO0qOx4/1Zc0DzwX14qn7hTWndQR9L3vSeGZuqenQjNNQWvSTDCBJixHxKlXqEge8e6RmP3+Q0R5jVpripx8mmzNTftpxabyjXWx2NRYnLMowIijv6eHepKSWi+kAlSrQ4zurEfe1XmmMmcLn1/d8gENQ5N3rMoTXxV+qu19keRlckBmM69xVP6eVtO1BnJHRX4fRijtOVOUQivBKCHF2+mcEsIoIm3U0Zmjr9LDtkYdggibp0zJksRbDJTGKUUqHsA5RGGcz5+sgxCbOpxNMWK9wg6DFZAiM4Pkyj2Va5vHM5wqxO74wnemc2nnZcwXwZMOU03HLfuaFI6ScmSNMVyWkaUpThxxammkPj9NGz8lBklbgbSC8csU1c4WP+Wx37dUnW1niQIhlAyVJjTGahhTJtMhmfZLIHEZCos4n+hanEWsQ6zDpRabWVJ80Nnq51/g0gsvJk5i0izNE4QLFk2qi22Dw0MMCyuf+U9ed+mFbBnZigsVVhWQ8cozJr79rHSz0B7huu6nA+Vyp8gEJxlIBvEY1cBhAoVoTTN2hEGFcmiQpE41NH77FIaI0VQijXaZD+jWATGCCgz9lQomc4Rotm/djtWapnV5JJYjKhmSzGcLtOSD1SjEw4LnPJkL3V1gQBG3Qy+6doLNCXDz+4YCA6tWPs/hhy9lwQELmT9nBkuWLOLBh5Z3aSXf9pY3MGtmP2ecuYwt29JcZapbkqc1mY47lPZ73N099pR8bl3FU08+wRFHHM4hhx7K3NmzOeYPjmXti+t47tmnuexNf8jY2HacS/1hbSu8yTnrXQed8/t3UQTao8kp7XPrKsAqjcXnJFa5kkRLoZx0GCNkNmnJbae03zPneyW/bBxX3ynadH8dO8TT6iqsgFgC4Bd3383cuXM4sL+fT3/6s2gTMDbW4Pjjj2fmYMUjd2/ciMMwOtbkhBNO5MAD5nHA/DlsGRoitbB9+xgnHH88A30Bx/7BUl7auBlTrdCIM4455hUM9pY59NCFJCkkCaTWTx5FFFF3ZfYu6XGyin07UIVGs44OApYccRzPPv8i27Zv4q47fsK73vkO1qzZ4lP72JQffO9feejXv6TS009ULvwxd+IL4vbo2D1qd4wxJRwBzkQsOepofvv0Ezy/5jm+dcOX+W9vfgOLFs7jX7/zbWbM6McECmM0JtCUSiGVSgjaopQl0IYoKJFmjsw5krgBNsVlKVop4jRDB36pXSmFKK1pxonf12YZksT0hQElpQiUJiyRG9y8Am98sriXE00+k+Yzv9Da1ytR3HfvA/zZ29/F448/wdrRMa795LWkmfCJT36eT/z3z7Jlw1o++6mrueqK92NCwzWf/Z988CPXsPGl5/m7z3+Kqz/0UZCIT3/2c3z84x9lePMGrvn4B7nqgx+ikcE1n/kfXP3xaxke2cy1H7+Ct//pfyEKoFqZkMprn5HuHpz7tuMUgstSGrUagQnQJsDajAMOmE9UqlCuVAkMBMbDS4SBnzdcS5Lu93XsLlOlp4Q3gRjCMAKlmT1nFq88/ngio3jo17/kLW95I8MjQ7yw8jkOWbyIefPmM3/+gdx11z1EoeG551aw+NDFzJ07l1NPejWjIyOEUcgNX7uB+fPnMXvOHBYffDD33vMAgYKnHn+cgxcdwoIDDuC0U08lqdepGM1z//kkhxx8EHMHBpg3czG3/fwXZKmPqwQQ5yZFTv9d0g6/L14QIykiGbfedhvf+Nb/ZdaMQaIAwDFaq/HAQ49y8ulnUalUWHbu2TRGh1m1ci2/+c3jLLvgdZQizXnnnM7Ilk2sXfMi993/IOcsu5BSpcR5553Fls0baNQzfnH/Q1x48evJ0joXnP8aRke2U6tZ4hjSdDI7w95vwf2qb1dAOdD0lgziGkCGSMjDjz5FUOnBlCskGdg0waYpWZp2MU97WfFyI2n9f6wRE8dNesMIlWSkzYSxWsI//ct3SZxi5qwZJHGd4W1D/Nf/+ic88sijrN+wkVtvvY3/8dd/zUur13D5W9/KZz53HS9tWM+vH3yIOTNmYsKAP3/fX7Bp6xZeWvcS3/n3f+erX/4yWa3OH7/1bVz3V59n1fp1PPrr3zCz2kMyMsq73/EO7v/VA7y0ZYg7b7+L6//XF2k06l6Tr2nlZJDWPPVyGaoTqVCz+B8Jigaim/zgpz/m0je+nvmz+5hTDfjOv3wbEwRIGKJKFZwEHDB3AcnYMK4+RtbMsBmkzjFnzgxGhtYRuIRmItQzD/g0f8EC4rFtbFjzPKEJqdUaKAWLFi1k67YhRkfHvGulbpetXc5cI7wXm3D/+O62qEhr6Vj+5JMcdvAhRDrlsCOWcvOP76JSVZgAjDIEOiQwASjPUN5eJbnWbN/SDltBCqW7dJgufNmU0QTliCRNWbnyBY55xXFIM+HI407itttuY8vmF1AK1m/YwIsvruWoo4/FNn2qyGpPheefXcGigw/ijZddlivSQrRWNBt11m9az6UXvZ6tG4ZADEcsPZLnnnmaBQvmc+HFF2KiAGdTHyu5cR1rVq/muGP///bOPLiu6r7jn3PuvW/Rk2RJlgzGIJZASLBJHMAOYLMYG0IokE4glClpmk6bDG0WmpRplmaZdDLTmU5SEgKGADWQDikJJQUCSQwG7NhxGkISFrMZHLxJeJNlW8t77y7n1z/OvffdJ8mysSVjBX09b/R8313OOff8zvmd3/n+fr/3QqiBPPnmZqLAR6QYWyXrrYn2++FHrx++2rN7lYJQaGrk2TVrOLpzGs++sIaP/s21nHX2+Qz09wMQRhHlctkG+soXCP0AHUf4cD0Xz7GGJcfVCELo+xDvVxbyOfxqBVdru78axWFRsBnpNCBRPNOZrJ1ekmKOWJehR2qnjTxn6uFNMH6CahAqJmAgDHjXe+fy8oY3eO6pp/B3bUf8Pgo5CI0QiKHi+wRRiOPGUmnAUXGAEjEYqUUnGKt/+yP+tYS2MZc2TVtArIqBKIeKGI7o7GTdpk1s2rOHX69eTnNjgaBSQaMxkWb2ae/n5VfXs7l3N5t2bueV19cy45jpVCuDlMtlm4wJhW+EjevXc9GiRSy+fQmbtvewauVKpk9pQomPKMuU9wMfPwrwjY9X8Hj3rJmsWbeR9b272NyzlfXr19LaMiXe0onwXG8IkSWxmqsxb9v9/bc3u5JObJuAtWO7GDwicfBDIQgNnZ3HcU3oVzoAABQHSURBVOSR01m3di1TCnlyRAThIJu6N9HWMYNSczu5fA6lDUoMmzZ10dDUhlcs4Qd9aNNH3vhs3bSJxuY2is0tNDUWcSTCQdO9uZvm5im0tkzB963fQmynq5Oe0T/1/Sw15LH35Vxtwj4EqqQohR8JXqGEdnOEoTDj6GO49ZZbOPesM+nesBmNwXFc8oUmuru30b+710Y7iD0fkn3S8WFJxTyf0UyMQ5SboYNcFAmD5Qray6Nzeaq+jeUU+D6hX6WQL6LEYdq0I9mwfiP/fe+PCOPMQtWgStvUNrq6ulj78ssYE/HAww/Rs7uXMAg44djjmHPGXPI5j1+tXEF//25ap7bR9UY3a55/Dtd1eHLlSnYNDNDaMZV161/npw89hOdZUn0YJ+PyHI+cFztVoIaIxlvFOEp4tQoletjH0uySDu0gkkNwOefcc1h8yy2EIXR1bWfDhi5OOWUmZ809nccfW4rr5lm1+ilKTS20TS1x1pmns3rVCsJQ8diyVbS2T6d92hEsXHgOK558lNAPWf7ESpqbW5h+ZCuz3zOTZY8uRfB4csWv6ejoQDvWaJTPEffH4SI2moCqYWeNPj0c4vykmly+CTG9SNUHMVAsccb8BXz1i19m/ulzuPeeH3D956+ja8Pr6FyRu+9/mJYSeLGNSytt86ykIdmp2zo5cAstNcL1m7uKhJcCNuCYaMFEmjAQNBotlscpogl90CrHlOYm7r//R8w//2K+9s9fAAWzZs/kkQd+zG23385lFy8Cr8h5F15EQ2ORk995MrNPnc07jpwOjsf555yN19hAU3s7//7tG7jqiiswgWHBRRfR2NGBVyrxkwfv55zzLuVLn7sejHDirJn8YukjFFB4nksYRelgl6i6Bz70HcygGesmMvJdFGQ4tIBorBdoyDe+8VU+8pGrOOqo40Hl+OF9P2HWKcfzjW9+nbPfP4fPXHcdhVIzK3/zNCY0fONr13PW3DP45Cc20tByJMt+9RSup/nKl7/AvDNO4/P/+E/ki1P45TN/AD/i3775dc49+2w+d/3nmNLezi+WrySft6uwwYGIvDc8ycdoAncgraR6enrk3nvv5eqrr6atre0AbrF/uPmm7/PRj16D0hCKiy8FgghyOiLnKIKqJdqXGjwCPyTnuZT9kMhxEQ1RYPA8jYlqY8+4zKZvwvtHxVHJlbLMk6Yml939EY5yMBWbvXt3tUw+n6fgaCQIUQJBUEG5EUYpRBXRrke1XKV9ap5K2Ua+NzhxBF1rSHOM3ZYRlcfLuQR+lUplgGJDARMZioVGQgOhip2LZYAoCPCcJoQcQexpVMjbKtr9PZN2qHS0TweqN2NAGgt7RrzO38c6rrEZ+vtDEBUHF7O5VsLQw/MKiANhKDQWFX6ljBiPXMElwEaWd8IKURBQLLVQDoXA0SgMReUTDpbJuSXcXI5BMdYA6OaQSCiUPPZUDOUopFC0/rvKSEou2d/aJ20r1BYWTU15PG33XZOgBlm4AGEYpi5kY41aEihFEJrY2db67bmuVW+iSNCxf2ClarcIKn4F0OjYlc3RoEySt8RWdL/70H4iUbdGR6Zbx/lIEmogxnpPSLyWFhNSynmIGKIgcTJz8HJFhCA23mgkFPI5j76+MF7jWoICQKQBrXBw0MrBIPh+gNKaQkPJruMcbRMDKYcwdnVTOLiOslkDJMSN3bvCajyoWFpX2po1AT1QgTvYl5Gk8NrHOaJjml6YJkACjesojNgkwArDYNnYuymhXA2JSaYo5eB4js3JC7giiLJpTnSuiEHhhxGO1pS8BtsarjBYDdFayCswgR+/e/vspOo17i57nUBUXVaHWqbv+LIR4YoIruvGeUnHHmEU4SkXpRSelwcsgTnhr2oZsgoytvA6duYTrNOsQhCJ7J7pGPm6Dsfo3aR+0R+ruSZCodFO7J2iBOVIhkdrz03unnmL6ZMSY5hgvYAwKmUWmfikJJGSzaJWn7IvjUkfs5NA4+CipbYsSP0iY26wxLN/nZAy8ky2b4zV+0iyl438DpIyu9qW23qgONRKL2l0QJUcF52ylRQKnTg4xM9ziWKapCbxNcUYVOxon0wISkX22fG9tFLpUkZLRveQxCXQ7kNrx0mXYFkNJZlJPddJS5PSrIcgnT6NMWzduhXf999sy46KSqVKQ0MjYRTR2JQnSDovsaVUqZpfY9oha2yO1DkWh8TLNNslxlpeR+ukQ0c8K29ebNG1x0ol16pC2TIOu5H1Y6wz1CTOv9m6U4s+l6zXDMPrnH1WPMah40zYoqhb6wmOjfkzQrnGQmk9GOxtTZqFo8FzJR7wqVdsyLRXZhCz78muHR0ThzdJxktsGJWknTzq329q+VBu7BVc33+HOt+rbBpE7di+MJR+mSm2CWX0gAZkhFRrzdSpU3GcsQtEVovxAvl8Dq1rD0ycrur26ZIMZJlJPfmalGqoFjGWMppMeqMLalIiXfcys4Kl3OENnhUKia/PWvqS37LZuBW1eicn6qSMeymfAyMOEDqZSdXQcmTrVv/3rcD+PNt19h7vKlEmszpRolgqQGciyWSFMHmH2XevhgiPypwfr0KGY+gAug9juXbUPumFls0Zl0br8XQAt7r3aCtfFcczUtYt0zpGxx7smGTGqS/fWPIn1bAvI2F4q2fLkDE61987PicR8XQ0Jkq/pepWpgwqc/L+mHKGFn1ondQo577V2L/yGBwnzhpXr0OQOncP+TVpt9oiQWV1mGGTRXKwbgIhij1wdCrwidktu0RSI95s73XdH3Fzxzsqg0Wme6WdcEgFh1RMD+2UyQEOv85Vh71K0RD1K0VtzN/LSmx/R4+9/rpXwZ1wiJONqOT7cDEcrXb2DBO3eP1gO5LmY42TKn5mcqQ2itZEVcjmSh9rkTok+6RW55fUZmKPJXbEOEYFjl1LDZmVRgpDMeGgEjNBPa8pSTiIUOt4Ksu7SWbeWgsczE7mxEeyKk8gZIfy7FZI7Xv9wFgzpmXDtCX9EGrza3b1aY/bgBBJvvDacagNGQcQtXmfOIT0ErusV1SxqeoTmHRWNSobrDmAOLTFhBLSvbyhWldJzBsJuT1GPIJJXedKrpKYDD/yI95eYptVVGWET3JWvOXCkDVlZDOk2X0D61gfpleZ2CBi34JBQbLciskU1r1ep1Eck6iCSWbY8eirh0RIVfoJwPTx+ktPM62tHdcp4jgeza1tPPLE7xiMl2eVch9XXv4BmoouZ8w9j57dxkbxmwC9UaKIKAz4s0s+iOvoeJ2vaW5swlEOV15xBQsXLSAI+nj55eeYP38Be/oDKr4hNInyZM1TyYBVKQ/GCppKM4X7fpwxPFlFTKiR7ECRnavs30p5kKNnTCfnFdCOx4c+/BcEUTxPSkDf7l1ceunlbO/ZZZMz+wOcdFS7dSV0i5TaZrBi9e+o+gEnHDODRs9hWusUXvvjJqqhpuJXObbzKIo5j46Oo9i0vZ8AKO/pZ9ZxnTRpxRFt09i8bXdKPhlz9PT0yOLFi6W3t3fccsEYY+TWW28VkUERf4Ose+5x+cCii2XnzkERqcpLr74kHcfNkRc3+OKLiIgvYnrk9Vd+L++Zu1C6d4sEUssBY4wRs7dkMG8RkjKZMJQoCCT0ffHLFXnx+TVy3vz5smPrNvGrVRERiUxVRPqkb3BLXS6QciAyWOkTEZFKKBIYkSgIxET2utFqHJp95ar5E0FaqUhEAln68wfk7rsWi5g+GazskQsvu0J+9sQqEfFl8U3fkpyDzJw5S3oGKlINfJE93bLwtJOkq3uDVEWkV0R6jcinP3ud3LPkdhGpyK3f+ZZc8qErJBSRT193nSz5z9tEwqrccMN3ZeGHr5E9IvLZaz8r992xRCT05aYbvisL//wa2VKRuP+OLQ4xm1pBJDhenmogKO0BhmlTW2hqLMXpAAEMlPtQGBw3hygbtVzM4av6KhVH6HMctOvieB5eIU9jQwNhEOJ6Hp6XY9NrG7l4wSJ++uC9TG07klmzZ/H0869y5nmX0j9QpZgv8dLLz7Jw4cXs7BkkLFc5+bjjcR0bavLOu+/iezffTKHUiFKa1qnt/OLRZW+TmTQLq1ZdcMEFfOxjHwNssLauri5OOumdgObvr72WZ//we9paW9DaJQgEQtdyJyVI15f9gxWeeHwll17yYcBh0aIF7OzdRteO3Sx99FcsWHAJElW4+KJ59O3spnf7AI89+RvOvehyIGThBxYwsLsfHY6PanroXR4ch3KlSqXqpxE8nn7qtzhaaiEpxEBD0UZh00669xVGEke+H/9YwQeDyuBg+j2KIoqFQmo0C6sV/MEBLly4gBeeX8XUdpsODyeHaBekjDI+xvhorbnyqr/kX77yr4SRYEzEx//6r/jMpz5Ff18fIoZ7f3w/N950C4PVYHxUrcMVxhocteMQBiGXXnoZnZ2dPPDgQ5x4dIc9R4SmUgmtFEEQ2rCq+SJbdvTQ2XkixQbNF7/0efKeg+cWCEPA9zn22E76+vawZcs2ioUWcl4J5WqOOaaD3Tu3URkcwPUKloLpKDqPP4benp307fLHZUV2iL1gFHgN5HMFXnnlRTo6OjDhLuacMYdVq1aTL8ab9wJEYgMYew4RNmaWOlRBZQ4ShYaG9HsQBIRRmBp+cl5EzolSSpvE9TR4RAaQAIcqnvbZ1LWB7QMBl1/9cSrlgELRI6juYnP3G8yZey47dw8iuLxr1kyqIiRhjA7v8NYHiSRgngJQaMdDO5oH/vdBfHF4z5zzuPE73+WSC+aDm6sbzI0GyXk889pa3GKBXeU9zH7f2Vw870JEhIFKhTZjXfgiA4VCKY6/q0CD5zpAhOtaK3NkQqKwakk6zlDL89jh0L/P0MdxPU499VR6e3tZt/aPbN++g127dqAdCCWyVhDRKFzCMELEZgAbh6yM445kiyXZZTOEGBXF/3fQ5MBoivkcpaLN8ag0oDXVMCSIQowIhbwHEtK1eSPnnTOPH95zD8Yf4Ok/PENDY3OaouNPG8OtuTbAuIN2HHJejgXnn093d3dKvq/4VcIoJIpC266uhy54VIM+irk8p8+eSyFXAhOS8wAldHe/QWvLVJqamlA6sf8qXt/QRXNrO24uB1JFRWUc16V7cxel5hLNrYWJa92tQYFyCAJj3YoMHHd8J3fedQfve99sujdvwVE2cj06x8aN3fTv3oMykHMZR2L9OCE20de23IVAQ6AkFigHJUU8VeDVF56jZ8sWgkqVJ1f8H107+jiq83hmtDfz8H0/iG+kCSMbgWDu3LkY4JcrltPftwciwwQcww4ady5Zwi+XP4F2XPxqlaVLf84JJxxHZAQThARRZEOlOA55YNnjS/nBXXfhKofXXt3Ab59dxztnnsa8M09j1ZOPQL7AihUraWttp2NqE3PnvJufPvwjIMfSx1Yzpf1oGpqbWXj+XFYv/xmEimU/fxwn7yC5cZpLe3t7D4l19/u33ioivki0S155/imZO+ccKZdFJIokCKvyncW3iSo0ytLHlso7jj1KiiBTCgV5eNlvpV9E+n0joYkmlrXSiKxb86JcMG++7NjZI6GEsva15+ScebOk2r9e1q19Vuade7m8sUPk2zfcIZ6bF08hV155mbx/4Qdla38oL615QY6Y0ih5x2Y5WHLHzfKpf/iEAOLmSnLJ5VfJvAs+KBu39cpAkGTq/lO17hqxNQzF2vt9Wfbow5LzkEIOcVzke7fdLlURCaJQFt98o7S2NNkpV3ty293/JS+++JxMbcmLYyOwyI133icDIlLZs0dOPKJFWlykvbkkf9zYLWUjUq72yzEz2qXgapnS0iYvdG2VPhGpDuyRk6e3S6uDtE9plnXbeqRXxse6mzp9X3PNNZRKpXHxKzUm4s4lS/jbv/sESBWbC9IlDG0CHqVqI5D1pKpxcoL4NxdAQrTKuhod5kj31wWjTUzMjlBhBSKf1Suf5pNf+g8eW/4ojVpoKtip16AIYzaSRxRvsCfk29oeoQx9DCOrRhOktfYDI5EXsh9NhGfZbGJS974kV44GHBEgIlKGEI1YT1tckbidbdgvo4RIQpvtWxTg2vA/8bPyCbkXSzKvxsw4D8Zco3EBHMchDMM0serBYCSrq1KKIIgDO7s1Z6BEQCERzvSK9NrxoFkdcqRUyJjlUg05492nsGHzdv5n+TNEIRSaVGoMgcQbMmYmpcc1Gd+9OiZNFhNsUTCmyBL9snlWMhR4El8hK1bJcJj4piZnhTgqFtqUjiM4cQotgxdTWG1SMSfNyjM6f/hAkEZm8DwPz/PG9OY12HSAkTHo1I8yEdAks5iTtEP2snou5uGc4XYkZHnI6fyvyRVLrHl9IygvzafpZgYoHRMBa45Xlo5mr46R9ZYZ0mZvT9QLR3ayyDaRUcmMqnBUQrdUw663A6KpzSKpQ4iOz6xlsrUinvjXjD3qPB+7u7vH3DgTRRE5z4tDSOYYedyv68110HU/TNwemPhdWFc8L05xqHASz550tkzOz0qhqlcy6l7RcL+o7CkTt8X2hpFqVMfOHaZh2GGuXjFOokLWaX5DB1WVjfqQHM3eKXtZ9tnD38nBQPX07JS2tlYbW+ctIQjU1hOjnQFZVWYiQkYQnL3VZehqU1HLAP52x9BJpF6NSOa70VATpNpbSUO5pidl7LSioC7vrdSJ7r6edLA4xGSGkbDv6u67U08EvBlVSA37PrEHqLHE0DYYrkW8ufuMcMUQrSZRebP9cOTnjI81QOsJwuJ5e2K4sE5ibFE3RQz7T/bvCKeMeLeRvh8cDoOZdBKjY1I43zocSNuP/fuaYObSSUzi7YdJIZ3EJA5zTArpJCZxmGNSSCcxicMck0I6iUkc5vh/e6SmdG6sHkoAAAAASUVORK5CYII=;" vertex="1" parent="1">
                    <mxGeometry x="50" y="240" width="233" height="150" as="geometry"/>
                </mxCell>
                <mxCell id="3" value="&lt;div style=&quot;&quot;&gt;&lt;span style=&quot;background-color: initial;&quot;&gt;&amp;nbsp; &amp;nbsp; &amp;nbsp; &amp;nbsp; &amp;nbsp; &amp;nbsp; &amp;nbsp; &amp;nbsp; &amp;nbsp; &amp;nbsp; &amp;nbsp; &amp;nbsp; &amp;nbsp; &amp;nbsp; &amp;nbsp; &amp;nbsp; &amp;nbsp; &amp;nbsp; &amp;nbsp; &amp;nbsp; &amp;nbsp; &amp;nbsp; &amp;nbsp; &amp;nbsp; &amp;nbsp; &amp;nbsp; &amp;nbsp; &amp;nbsp; &amp;nbsp; &amp;nbsp; &amp;nbsp; &amp;nbsp; &amp;nbsp; &amp;nbsp; &amp;nbsp; &amp;nbsp; &amp;nbsp; &amp;nbsp; &amp;nbsp; &amp;nbsp; &amp;nbsp; &amp;nbsp; &amp;nbsp; &amp;nbsp; &amp;nbsp; &amp;nbsp; &amp;nbsp; &amp;nbsp; &amp;nbsp; &amp;nbsp; &amp;nbsp; &amp;nbsp; &amp;nbsp; &amp;nbsp; &amp;nbsp; &amp;nbsp; &amp;nbsp; &amp;nbsp; &amp;nbsp; &amp;nbsp; &amp;nbsp; &amp;nbsp; &amp;nbsp; &amp;nbsp; &amp;nbsp; &amp;nbsp; &amp;nbsp; &amp;nbsp; &amp;nbsp; &amp;nbsp; &amp;nbsp; &amp;nbsp; &amp;nbsp; &amp;nbsp; &amp;nbsp; &amp;nbsp; &amp;nbsp; &amp;nbsp; &amp;nbsp; &amp;nbsp; &amp;nbsp; &amp;nbsp; &amp;nbsp; &amp;nbsp; &amp;nbsp; &amp;nbsp; &amp;nbsp; &amp;nbsp; &amp;nbsp; &amp;nbsp; &amp;nbsp; &amp;nbsp; &amp;nbsp; &amp;nbsp; &amp;nbsp; &amp;nbsp; &amp;nbsp; &amp;nbsp; &amp;nbsp; &amp;nbsp; &amp;nbsp; &amp;nbsp; &amp;nbsp; &amp;nbsp; &amp;nbsp; &amp;nbsp; &amp;nbsp; &amp;nbsp; &amp;nbsp; &amp;nbsp; &amp;nbsp; &amp;nbsp; &amp;nbsp; &amp;nbsp; &amp;nbsp; &amp;nbsp; &amp;nbsp; &amp;nbsp; &amp;nbsp; &amp;nbsp; &amp;nbsp; &amp;nbsp; &amp;nbsp; &amp;nbsp; &amp;nbsp; &amp;nbsp; &amp;nbsp; &amp;nbsp; &amp;nbsp; &amp;nbsp; &amp;nbsp; &amp;nbsp; &amp;nbsp; &amp;nbsp; &amp;nbsp; &amp;nbsp; &amp;nbsp; &amp;nbsp; &amp;nbsp; &amp;nbsp; SELECT ESTADO, BAIRRO, SUM(LIMITE_CREDITO) AS LIMITE FROM tabela_de_clientes&amp;nbsp;&amp;nbsp;&lt;/span&gt;&lt;/div&gt;" style="text;html=1;strokeColor=none;fillColor=none;align=left;verticalAlign=middle;whiteSpace=wrap;rounded=0;" vertex="1" parent="1">
                    <mxGeometry x="-190" y="150" width="740" height="30" as="geometry"/>
                </mxCell>
                <mxCell id="4" value="&lt;div style=&quot;&quot;&gt;&lt;span style=&quot;background-color: initial;&quot;&gt;WHERE = 'Rio de Janeiro&lt;/span&gt;&lt;/div&gt;&lt;span style=&quot;&quot;&gt;GROUP BY ESTADO, BAIRRO&lt;/span&gt;&lt;br style=&quot;&quot;&gt;&lt;span style=&quot;&quot;&gt;ORDER BY BAIRRO&lt;/span&gt;" style="text;html=1;strokeColor=none;fillColor=none;align=left;verticalAlign=middle;whiteSpace=wrap;rounded=0;" vertex="1" parent="1">
                    <mxGeometry y="190" width="290" height="30" as="geometry"/>
                </mxCell>
            </root>
        </mxGraphModel>
    </diagram>
</mxfile>